<svg viewBox="0 0 125 200">
  <path
    fill-rule="evenodd"
    clip-rule="evenodd"
    d="M0 154.299V200h125v-74.792a5.208 5.208 0 0 0-10.417 0v11.402a5.208 5.208 0 0 1-10.416 0v-4.129a5.209 5.209 0 0 0-10.417 0v58.674a5.209 5.209 0 1 1-10.417 0v-15.038a5.208 5.208 0 0 0-10.416 0v7.766a5.208 5.208 0 0 1-10.417 0v-36.856a5.209 5.209 0 1 0-10.417 0v25.946a5.209 5.209 0 1 1-10.416 0v-18.674a5.208 5.208 0 0 0-10.417 0v4.129a5.208 5.208 0 0 1-5.208 5.208 5.209 5.209 0 0 0-5.209 5.209v15.038a5.208 5.208 0 0 1-10.416 0v-29.584a5.208 5.208 0 0 0-10.417 0Z"
    fill="currentColor"
  />
</svg>
