<svg viewBox="0 0 100 100" fill="none" xmlns="http://www.w3.org/2000/svg">
<path d="M82.6588 70.2372C81.2958 73.3861 79.6825 76.2846 77.8132 78.9494C75.2652 82.5822 73.179 85.0968 71.5712 86.4932C69.0788 88.7853 66.4084 89.9592 63.5489 90.0259C61.4961 90.0259 59.0204 89.4418 56.1386 88.2568C53.2474 87.0774 50.5903 86.4932 48.1609 86.4932C45.6129 86.4932 42.8802 87.0774 39.9572 88.2568C37.0298 89.4418 34.6715 90.0593 32.8685 90.1205C30.1263 90.2373 27.3931 89.0301 24.6648 86.4932C22.9235 84.9744 20.7455 82.3708 18.1363 78.6823C15.3369 74.7435 13.0353 70.1761 11.2323 64.9688C9.30126 59.3443 8.33325 53.8978 8.33325 48.6249C8.33325 42.5849 9.6384 37.3754 12.2526 33.0099C14.3071 29.5033 17.0404 26.7372 20.4612 24.7066C23.8821 22.676 27.5783 21.6413 31.5589 21.5751C33.7369 21.5751 36.5931 22.2488 40.1425 23.5728C43.6818 24.9014 45.9545 25.5751 46.9508 25.5751C47.6958 25.5751 50.2204 24.7873 54.5002 23.2168C58.5475 21.7603 61.9634 21.1572 64.7617 21.3948C72.3445 22.0068 78.0413 24.9959 81.8299 30.3812C75.0482 34.4903 71.6936 40.2455 71.7603 47.6285C71.8215 53.3793 73.9078 58.1649 78.0079 61.9646C79.866 63.7282 81.9412 65.0912 84.2499 66.0592C83.7492 67.5112 83.2207 68.9021 82.6588 70.2372ZM65.268 1.80308C65.268 6.31052 63.6212 10.5191 60.3389 14.4145C56.3778 19.0454 51.5867 21.7214 46.3912 21.2991C46.325 20.7584 46.2866 20.1892 46.2866 19.5912C46.2866 15.264 48.1703 10.6331 51.5155 6.84676C53.1856 4.92965 55.3097 3.3356 57.8855 2.06399C60.4557 0.811361 62.8869 0.118628 65.1734 0C65.2402 0.602574 65.268 1.20519 65.268 1.80302V1.80308Z" fill="currentColor" stroke="currentColor"/>
</svg>
