<svg viewBox="0 0 100 100" xmlns="http://www.w3.org/2000/svg">
<path d="M32.4546 22.5145C34.7063 22.4726 36.9547 22.7035 39.1509 23.202C41.0001 23.6057 42.7557 24.3569 44.3245 25.4158C45.7733 26.4686 46.9197 27.8842 47.6486 29.5202C48.4862 31.532 48.8903 33.6978 48.8345 35.8762C48.9297 38.2682 48.3188 40.6354 47.0779 42.6826C45.7726 44.6161 43.9683 46.1603 41.8563 47.1514C44.7224 47.9241 47.2187 49.694 48.8964 52.1428C50.507 54.7374 51.3165 57.7495 51.2236 60.802C51.2768 63.2357 50.7736 65.6495 49.7524 67.8593C48.8084 69.787 47.4263 71.4669 45.7167 72.7647C43.9565 74.0481 41.9758 74.9977 39.8728 75.5663C37.692 76.1696 35.4392 76.4726 33.1765 76.4669H8.33325V22.5145H32.4546ZM31.0211 44.3361C32.7903 44.409 34.5318 43.8794 35.9609 42.8338C36.6453 42.2246 37.1777 41.4637 37.5155 40.6119C37.8533 39.7602 37.9873 38.8412 37.9065 37.9285C37.9523 36.8624 37.7401 35.8011 37.2878 34.8347C36.9041 34.0652 36.3075 33.4221 35.569 32.9818C34.821 32.4972 33.9806 32.1729 33.1008 32.0296C32.1463 31.8447 31.1751 31.7606 30.203 31.7787H19.5878V44.3842H31.0211V44.3361ZM31.6399 67.3058C32.7098 67.3203 33.7775 67.2049 34.8196 66.9621C35.772 66.7517 36.6751 66.3608 37.4803 65.8105C38.2691 65.2604 38.9063 64.5203 39.3331 63.6586C39.828 62.5598 40.0554 61.3593 39.9966 60.1557C40.1039 59.0588 39.9586 57.952 39.5719 56.9199C39.1852 55.8879 38.5673 54.9581 37.7656 54.2018C36.0664 52.9503 33.9841 52.3304 31.8771 52.4487H19.5878V67.3058H31.6399Z" fill="currentColor" stroke="currentColor"/>
<path d="M67.2531 67.1064C68.1365 67.9252 69.1771 68.5558 70.3116 68.96C71.4462 69.3642 72.6512 69.5335 73.8532 69.4577C75.7588 69.5058 77.6274 68.9261 79.1711 67.8077C80.427 66.9911 81.378 65.7827 81.8765 64.3701H90.8519C89.8956 68.3915 87.5603 71.9505 84.2518 74.4284C81.078 76.535 77.3272 77.6019 73.5198 77.481C70.8023 77.5166 68.1055 77.0058 65.5893 75.9788C63.3133 75.0295 61.2719 73.5947 59.608 71.7746C57.9503 69.8674 56.6768 67.6578 55.8576 65.2673C54.9381 62.5953 54.488 59.7843 54.5273 56.9588C54.5105 54.1806 54.9758 51.4206 55.9023 48.8014C57.1471 45.1168 59.5271 41.9211 62.7009 39.6731C65.8746 37.4251 69.679 36.2403 73.5679 36.2887C76.4391 36.2287 79.2783 36.9007 81.818 38.2413C84.1137 39.5001 86.0941 41.2631 87.6103 43.3976C89.1612 45.6374 90.2729 48.1512 90.8863 50.8055C91.559 53.6558 91.7989 56.5912 91.5979 59.5129H64.864C64.6474 62.2579 65.5038 64.9799 67.2531 67.1064ZM78.9821 46.5876C78.234 45.8394 77.3342 45.2601 76.3433 44.8889C75.3524 44.5177 74.2935 44.3632 73.2379 44.4357C71.8375 44.3823 70.4471 44.6926 69.2022 45.3364C68.2153 45.8797 67.3442 46.6107 66.6378 47.4883C66.0118 48.3111 65.5454 49.2439 65.2628 50.2383C65.0081 51.0677 64.8489 51.9235 64.7884 52.789H81.3471C81.2028 50.5328 80.3809 48.3726 78.9889 46.5911L78.9821 46.5876Z" fill="currentColor" stroke="currentColor"/>
<path d="M83.4027 26.1169H62.6536V31.4211H83.4027V26.1169Z" fill="currentColor" stroke="currentColor"/>
</svg>
