<svg viewBox="0 0 100 100" version="1.1" xmlns="http://www.w3.org/2000/svg" xmlns:xlink="http://www.w3.org/1999/xlink">
<path d="M78.8784 23.506C73.5671 21.069 67.8714 19.2734 61.9162 18.245C61.8078 18.2252 61.6994 18.2748 61.6436 18.374C60.9111 19.6768 60.0997 21.3765 59.5315 22.7124C53.1263 21.7535 46.754 21.7535 40.4802 22.7124C39.9119 21.3468 39.071 19.6768 38.3352 18.374C38.2794 18.2781 38.171 18.2285 38.0626 18.245C32.1107 19.2701 26.4151 21.0657 21.1004 23.506C21.0544 23.5259 21.0149 23.559 20.9888 23.6019C10.1853 39.7421 7.22579 55.4855 8.67763 71.0337C8.6842 71.1098 8.7269 71.1826 8.78602 71.2288C15.9138 76.4633 22.8183 79.6411 29.5946 81.7475C29.7031 81.7806 29.818 81.7409 29.887 81.6516C31.4899 79.4626 32.9188 77.1545 34.1439 74.7273C34.2162 74.5852 34.1472 74.4165 33.9994 74.3603C31.733 73.5005 29.5749 72.4523 27.499 71.2619C27.3348 71.166 27.3216 70.9312 27.4727 70.8187C27.9095 70.4914 28.3465 70.1508 28.7637 69.8069C28.8391 69.7441 28.9443 69.7308 29.033 69.7705C42.671 75.9971 57.4358 75.9971 70.9129 69.7705C71.0017 69.7275 71.1068 69.7408 71.1856 69.8036C71.6029 70.1475 72.0397 70.4914 72.4799 70.8187C72.6309 70.9312 72.621 71.166 72.4568 71.2619C70.3809 72.4754 68.2228 73.5005 65.9531 74.357C65.8053 74.4132 65.7396 74.5852 65.8119 74.7273C67.0633 77.1511 68.4922 79.4592 70.0655 81.6483C70.1313 81.7409 70.2495 81.7806 70.3579 81.7475C77.1671 79.6411 84.0715 76.4633 91.1993 71.2288C91.2618 71.1826 91.3012 71.1131 91.3078 71.037C93.0453 53.0616 88.3975 37.4472 78.9868 23.6052C78.9638 23.559 78.9244 23.5259 78.8784 23.506ZM36.1806 61.5665C32.0746 61.5665 28.6914 57.7969 28.6914 53.1674C28.6914 48.538 32.009 44.7684 36.1806 44.7684C40.3849 44.7684 43.7354 48.5711 43.6696 53.1674C43.6696 57.7969 40.352 61.5665 36.1806 61.5665ZM63.8706 61.5665C59.7647 61.5665 56.3815 57.7969 56.3815 53.1674C56.3815 48.538 59.699 44.7684 63.8706 44.7684C68.075 44.7684 71.4254 48.5711 71.3598 53.1674C71.3598 57.7969 68.075 61.5665 63.8706 61.5665Z" fill="currentColor" stroke="currentColor" />
</svg>
