<svg viewBox="0 0 100 100" xmlns="http://www.w3.org/2000/svg">
<path fill-rule="evenodd" clip-rule="evenodd" d="M49.9999 8.33337C26.9974 8.33337 8.33325 26.9975 8.33325 50C8.33325 73.0025 26.9974 91.6667 49.9999 91.6667C72.9573 91.6667 91.6666 73.0025 91.6666 50C91.6666 26.9975 72.9573 8.33337 49.9999 8.33337ZM77.5216 27.5398C82.4927 33.5955 85.4753 41.3233 85.5658 49.6837C84.3908 49.4577 72.6409 47.0626 60.8008 48.5539C60.5296 47.9665 60.3036 47.3337 60.0325 46.701C59.3094 44.9838 58.4959 43.2213 57.6825 41.5492C70.7881 36.2166 76.7533 28.534 77.5216 27.5398ZM49.9999 14.4794C59.0383 14.4794 67.3083 17.8688 73.5899 23.4274C72.9573 24.3312 67.5794 31.5167 54.9258 36.2618C49.0961 25.5514 42.6337 16.7842 41.6395 15.4285C44.3058 14.7958 47.1077 14.4794 49.9999 14.4794ZM34.8608 17.8236C35.8098 19.089 42.1366 27.9014 48.0567 38.3858C31.4262 42.8145 16.7389 42.7242 15.1572 42.7242C17.4619 31.6975 24.9186 22.5235 34.8608 17.8236ZM14.3889 50.0452C14.3889 49.6837 14.3889 49.3222 14.3889 48.9606C15.9254 49.0058 33.1887 49.2318 50.9489 43.8992C51.9883 45.8876 52.9373 47.9212 53.8412 49.9549C53.3893 50.0905 52.8922 50.226 52.4403 50.3615C34.0925 56.2817 24.3311 72.4603 23.5177 73.816C17.8687 67.5344 14.3889 59.174 14.3889 50.0452ZM49.9999 85.611C41.7751 85.611 34.1828 82.8091 28.1723 78.1092C28.8051 76.7987 36.0358 62.8796 56.1008 55.875C56.1912 55.8298 56.2363 55.8298 56.3268 55.7845C61.343 68.7545 63.3767 79.6457 63.9189 82.764C59.6258 84.6168 54.9258 85.611 49.9999 85.611ZM69.8391 79.5102C69.4775 77.341 67.5795 66.9469 62.9248 54.1577C74.0871 52.3952 83.8484 55.2875 85.0686 55.6942C83.5321 65.5911 77.8379 74.1324 69.8391 79.5102Z" fill="currentColor" stroke="currentColor"/>
</svg>
