<svg viewBox="0 0 100 100" xmlns="http://www.w3.org/2000/svg">
<path fill-rule="evenodd" clip-rule="evenodd" d="M47.4465 8.33337H63.3764C71.9872 8.33337 78.9677 15.3138 78.9677 23.9246C78.9677 32.5354 71.9872 39.5158 63.3764 39.5158H47.4465V8.33337ZM52.5536 13.4404V34.4088H63.3764C69.1667 34.4088 73.8606 29.7149 73.8606 23.9246C73.8606 18.1344 69.1667 13.4404 63.3764 13.4404H52.5536Z" fill="currentColor" stroke="currentColor"/>
<path fill-rule="evenodd" clip-rule="evenodd" d="M21.0325 23.9246C21.0325 15.3138 28.0129 8.33337 36.6237 8.33337H52.5536V39.5158H36.6237C28.0129 39.5158 21.0325 32.5354 21.0325 23.9246ZM36.6237 13.4404C30.8334 13.4404 26.1395 18.1344 26.1395 23.9246C26.1395 29.7149 30.8335 34.4088 36.6237 34.4088H47.4466V13.4404H36.6237Z" fill="currentColor" stroke="currentColor"/>
<path fill-rule="evenodd" clip-rule="evenodd" d="M21.0325 50.0003C21.0325 41.3894 28.0129 34.4091 36.6237 34.4091H52.5536V65.5915H36.6237C28.0129 65.5915 21.0325 58.6111 21.0325 50.0003ZM36.6237 39.5161C30.8334 39.5161 26.1395 44.21 26.1395 50.0003C26.1395 55.7905 30.8335 60.4845 36.6237 60.4845H47.4466V39.5161H36.6237Z" fill="currentColor" stroke="currentColor"/>
<path fill-rule="evenodd" clip-rule="evenodd" d="M21.0325 76.0754C21.0325 67.4646 28.0129 60.4841 36.6237 60.4841H52.5536V75.9061C52.5536 84.6317 45.3908 91.6666 36.7078 91.6666C28.1184 91.6666 21.0325 84.7075 21.0325 76.0754ZM36.6237 65.5912C30.8335 65.5912 26.1395 70.2851 26.1395 76.0754C26.1395 81.8443 30.8962 86.5596 36.7078 86.5596C42.613 86.5596 47.4466 81.7685 47.4466 75.9061V65.5912H36.6237Z" fill="currentColor" stroke="currentColor"/>
<path fill-rule="evenodd" clip-rule="evenodd" d="M47.4465 50.0003C47.4465 41.3894 54.427 34.4091 63.0378 34.4091H63.3764C71.9872 34.4091 78.9677 41.3894 78.9677 50.0003C78.9677 58.6111 71.9872 65.5915 63.3764 65.5915H63.0378C54.427 65.5915 47.4465 58.6111 47.4465 50.0003ZM63.0378 39.5161C57.2475 39.5161 52.5536 44.21 52.5536 50.0003C52.5536 55.7905 57.2475 60.4845 63.0378 60.4845H63.3764C69.1667 60.4845 73.8606 55.7905 73.8606 50.0003C73.8606 44.21 69.1667 39.5161 63.3764 39.5161H63.0378Z" fill="currentColor" stroke="currentColor"/>
</svg>
