<svg viewBox="0 0 100 100" xmlns="http://www.w3.org/2000/svg">
<path fill-rule="evenodd" clip-rule="evenodd" d="M49.9999 9.36133C26.9791 9.36133 8.33325 28.0072 8.33325 51.028C8.33325 69.4655 20.2603 85.0384 36.8228 90.5592C38.9062 90.9238 39.6874 89.6738 39.6874 88.5801C39.6874 87.5905 39.6353 84.3092 39.6353 80.8197C29.1666 82.7467 26.4583 78.2676 25.6249 75.9238C25.1562 74.7259 23.1249 71.028 21.3541 70.0384C19.8958 69.2572 17.8124 67.3301 21.302 67.278C24.5833 67.2259 26.927 70.2988 27.7083 71.5488C31.4583 77.8509 37.4478 76.0801 39.8437 74.9863C40.2083 72.278 41.302 70.4551 42.4999 69.4134C33.2291 68.3717 23.5416 64.778 23.5416 48.8405C23.5416 44.3092 25.1562 40.5592 27.8124 37.6426C27.3958 36.6009 25.9374 32.3301 28.2291 26.6009C28.2291 26.6009 31.7187 25.5072 39.6874 30.8717C43.0208 29.9342 46.5624 29.4655 50.1041 29.4655C53.6458 29.4655 57.1874 29.9342 60.5208 30.8717C68.4895 25.4551 71.9791 26.6009 71.9791 26.6009C74.2708 32.3301 72.8124 36.6009 72.3958 37.6426C75.052 40.5592 76.6666 44.2572 76.6666 48.8405C76.6666 64.8301 66.927 68.3717 57.6562 69.4134C59.1666 70.7155 60.4687 73.2155 60.4687 77.1217C60.4687 82.6947 60.4166 87.1738 60.4166 88.5801C60.4166 89.6738 61.1978 90.9759 63.2812 90.5592C71.5528 87.7668 78.7404 82.4508 83.8324 75.3594C88.9244 68.2679 91.6644 59.7582 91.6666 51.028C91.6666 28.0072 73.0208 9.36133 49.9999 9.36133Z" fill="currentColor" stroke="currentColor"/>
</svg>
