<svg viewBox="0 0 100 100" xmlns="http://www.w3.org/2000/svg">
<path d="M90.2826 41.6427L90.1655 41.3433L78.8227 11.7411C78.5919 11.1609 78.1833 10.6687 77.6555 10.3352C77.1273 10.0073 76.5112 9.84938 75.8904 9.88274C75.2697 9.91611 74.6741 10.1392 74.1841 10.5218C73.6995 10.9154 73.348 11.4487 73.1774 12.0492L65.5186 35.481H34.5061L26.8474 12.0492C26.6813 11.4454 26.329 10.9094 25.8407 10.5174C25.3507 10.1348 24.7551 9.91177 24.1343 9.8784C23.5135 9.84504 22.8974 10.003 22.3693 10.3308C21.8426 10.6657 21.4343 11.1575 21.202 11.7367L9.83756 41.326L9.72474 41.6254C8.0919 45.8917 7.89035 50.5733 9.15049 54.9642C10.4106 59.3551 13.0641 63.2173 16.7109 65.9685L16.75 65.9989L16.8541 66.0726L34.1329 79.0122L42.6812 85.482L47.8883 89.4134C48.4974 89.8758 49.2411 90.1262 50.0059 90.1262C50.7706 90.1262 51.5143 89.8758 52.1234 89.4134L57.3305 85.482L65.8788 79.0122L83.2617 65.9945L83.3051 65.9598C86.9437 63.2081 89.5911 59.3499 90.8493 54.9649C92.1075 50.5799 91.9087 45.905 90.2826 41.6427Z" fill="currentColor" stroke="currentColor"/>
</svg>
