<svg viewBox="0 0 100 100" xmlns="http://www.w3.org/2000/svg">
<path d="M67.7414 79.7685H20.4429C20.4429 86.3459 25.7283 91.6666 32.2704 91.6666H67.7414C74.2719 91.6666 79.5573 86.3342 79.5573 79.7685V30.8843C79.5573 30.6494 79.3694 30.438 79.1344 30.438H68.1643C67.9294 30.438 67.7414 30.6377 67.7414 30.8726V79.7568V79.7685ZM67.7414 8.33325C74.2719 8.33325 79.5573 13.6656 79.5573 20.243H32.2704V69.1272C32.2704 69.3621 32.0708 69.5618 31.8359 69.5618H20.8774C20.6425 69.5618 20.4429 69.3621 20.4429 69.1272V20.243C20.4429 13.6656 25.7283 8.33325 32.2704 8.33325H67.7414Z" fill="currentColor" stroke="currentColor"/>
</svg>
