<svg viewBox="0 0 100 100" xmlns="http://www.w3.org/2000/svg">
<path d="M67.1456 31.071C62.7567 26.968 56.8997 24.7328 50.8397 24.8247C39.7504 24.8247 30.3323 32.158 26.9743 42.0327C25.1938 47.2074 25.1934 52.8108 26.9739 57.9855H26.99C30.3636 67.8449 39.766 75.1782 50.8553 75.1782C56.5794 75.1782 61.4935 73.7431 65.3022 71.2083V71.1976C69.7848 68.2887 72.846 63.7112 73.7988 58.5365H50.8393V42.492H90.9325C91.4323 45.2783 91.6666 48.1259 91.6666 50.9582C91.6666 63.6308 87.0462 74.3449 79.007 81.6016L79.0158 81.6083C71.9718 87.9771 62.3038 91.6667 50.8397 91.6667C34.7681 91.6667 20.0709 82.7871 12.8551 68.7174C6.82624 56.9443 6.82586 43.074 12.8547 31.3009C20.0705 17.216 34.7681 8.33618 50.8397 8.33618C61.3979 8.2137 71.5969 12.1024 79.2813 19.1754L67.1456 31.071Z" fill="currentColor" stroke="currentColor"/>
</svg>
