<svg viewBox="0 0 100 100" xmlns="http://www.w3.org/2000/svg">
<path fill-rule="evenodd" clip-rule="evenodd" d="M17.6531 37.5589C10.7823 44.43 10.7823 55.57 17.6531 62.4411L37.5589 82.3469C44.43 89.2177 55.57 89.2177 62.4411 82.3469L82.3469 62.4411C89.2177 55.57 89.2177 44.43 82.3469 37.5589L62.4411 17.6531C55.57 10.7823 44.43 10.7823 37.5589 17.6531L17.6531 37.5589ZM58.7087 58.7087C63.5185 53.8991 63.5185 46.1009 58.7087 41.2913C53.8991 36.4815 46.1009 36.4815 41.2913 41.2913C36.4815 46.1009 36.4815 53.8991 41.2913 58.7087C46.1009 63.5185 53.8991 63.5185 58.7087 58.7087Z" fill="currentColor" stroke="currentColor"/>
</svg>
