<svg viewBox="0 0 100 100" xmlns="http://www.w3.org/2000/svg">
<path fill-rule="evenodd" clip-rule="evenodd" d="M50 12.5C39.815 12.5 38.54 12.5425 34.54 12.725C30.5475 12.9075 27.82 13.5425 25.435 14.47C22.935 15.41 20.6675 16.885 18.7925 18.795C16.8856 20.6678 15.4096 22.9337 14.4675 25.435C13.545 27.82 12.9075 30.55 12.725 34.5425C12.545 38.54 12.5 39.8125 12.5 50C12.5 60.1875 12.5425 61.46 12.725 65.46C12.9075 69.4525 13.5425 72.18 14.47 74.565C15.41 77.065 16.885 79.3325 18.795 81.2075C20.6679 83.1144 22.9338 84.5903 25.435 85.5325C27.82 86.4575 30.5475 87.0925 34.54 87.275C38.54 87.4575 39.815 87.5 50 87.5C60.185 87.5 61.46 87.4575 65.46 87.275C69.4525 87.0925 72.18 86.4575 74.565 85.53C77.065 84.59 79.3325 83.115 81.2075 81.205C83.1144 79.3322 84.5904 77.0663 85.5325 74.565C86.4575 72.18 87.0925 69.4525 87.275 65.46C87.4575 61.46 87.5 60.185 87.5 50C87.5 39.815 87.4575 38.54 87.275 34.54C87.0925 30.5475 86.4575 27.82 85.53 25.435C84.5885 22.9327 83.1126 20.6658 81.205 18.7925C79.3322 16.8856 77.0663 15.4096 74.565 14.4675C72.18 13.545 69.45 12.9075 65.4575 12.725C61.46 12.545 60.1875 12.5 50 12.5ZM50 19.2575C60.0125 19.2575 61.2 19.295 65.155 19.475C68.81 19.6425 70.795 20.25 72.1175 20.7675C73.8675 21.445 75.1175 22.26 76.43 23.57C77.7425 24.8825 78.555 26.1325 79.2325 27.8825C79.7475 29.205 80.3575 31.19 80.525 34.845C80.705 38.8 80.7425 39.9875 80.7425 50C80.7425 60.0125 80.705 61.2 80.525 65.155C80.3575 68.81 79.75 70.795 79.2325 72.1175C78.6323 73.7464 77.6747 75.22 76.43 76.43C75.2202 77.675 73.7465 78.6326 72.1175 79.2325C70.795 79.7475 68.81 80.3575 65.155 80.525C61.2 80.705 60.015 80.7425 50 80.7425C39.985 80.7425 38.8 80.705 34.845 80.525C31.19 80.3575 29.205 79.75 27.8825 79.2325C26.2536 78.6323 24.78 77.6747 23.57 76.43C22.3254 75.2199 21.3678 73.7463 20.7675 72.1175C20.2525 70.795 19.6425 68.81 19.475 65.155C19.295 61.2 19.2575 60.0125 19.2575 50C19.2575 39.9875 19.295 38.8 19.475 34.845C19.6425 31.19 20.25 29.205 20.7675 27.8825C21.445 26.1325 22.26 24.8825 23.57 23.57C24.7799 22.3251 26.2535 21.3674 27.8825 20.7675C29.205 20.2525 31.19 19.6425 34.845 19.475C38.8 19.295 39.9875 19.2575 50 19.2575Z" fill="currentColor" stroke="currentColor"/>
<path fill-rule="evenodd" clip-rule="evenodd" d="M50.0001 62.5126C48.3569 62.5126 46.7299 62.189 45.2118 61.5601C43.6937 60.9313 42.3143 60.0097 41.1524 58.8478C39.9905 57.6859 39.0689 56.3065 38.4401 54.7884C37.8112 53.2703 37.4876 51.6433 37.4876 50.0001C37.4876 48.3569 37.8112 46.7299 38.4401 45.2118C39.0689 43.6937 39.9905 42.3143 41.1524 41.1524C42.3143 39.9905 43.6937 39.0689 45.2118 38.4401C46.7299 37.8112 48.3569 37.4876 50.0001 37.4876C53.3186 37.4876 56.5012 38.8059 58.8478 41.1524C61.1943 43.499 62.5126 46.6816 62.5126 50.0001C62.5126 53.3186 61.1943 56.5012 58.8478 58.8478C56.5012 61.1943 53.3186 62.5126 50.0001 62.5126ZM50.0001 30.7251C44.888 30.7251 39.9854 32.7559 36.3706 36.3706C32.7558 39.9854 30.7251 44.8881 30.7251 50.0001C30.7251 55.1121 32.7558 60.0148 36.3706 63.6296C39.9854 67.2443 44.888 69.2751 50.0001 69.2751C55.1121 69.2751 60.0148 67.2443 63.6296 63.6296C67.2443 60.0148 69.2751 55.1121 69.2751 50.0001C69.2751 44.8881 67.2443 39.9854 63.6296 36.3706C60.0148 32.7559 55.1121 30.7251 50.0001 30.7251ZM74.8826 30.3751C74.8826 31.5835 74.4026 32.7424 73.5481 33.5969C72.6936 34.4513 71.5347 34.9313 70.3263 34.9313C69.1179 34.9313 67.959 34.4513 67.1046 33.5969C66.2501 32.7424 65.7701 31.5835 65.7701 30.3751C65.7701 29.1667 66.2501 28.0078 67.1046 27.1533C67.959 26.2989 69.1179 25.8188 70.3263 25.8188C71.5347 25.8188 72.6936 26.2989 73.5481 27.1533C74.4026 28.0078 74.8826 29.1667 74.8826 30.3751Z" fill="currentColor" stroke="currentColor"/>
</svg>
