<svg viewBox="0 0 100 100" xmlns="http://www.w3.org/2000/svg">
<path d="M88.0661 67.6199L83.0859 25.1171C83.037 24.6289 82.6953 24.2139 82.2558 24.043L41.291 8.41874C40.7784 8.22344 40.1925 8.36992 39.8263 8.78494L12.2398 40.6437C11.8736 41.0587 11.8247 41.6691 12.0933 42.1573L39.631 91.0074C39.8751 91.4225 40.3145 91.6666 40.7784 91.6666C40.9737 91.6666 41.169 91.6178 41.3643 91.5201L87.3337 68.9138C87.8464 68.7185 88.1393 68.1814 88.0661 67.6199ZM84.5018 64.5927C84.5262 64.7148 84.4774 64.8369 84.3797 64.9101C84.2821 64.9833 84.16 65.0077 84.038 64.9589L45.2215 50.1647C45.0995 50.1159 45.0018 49.9938 45.0018 49.8718C45.0018 49.7497 45.0506 49.6032 45.1727 49.53L79.7901 28.4129C79.8878 28.3396 80.0098 28.3396 80.1319 28.3885C80.254 28.4373 80.3028 28.5349 80.3272 28.657L84.5018 64.5927ZM77.3 26.1913L43.0488 47.0887C42.9267 47.1619 42.8046 47.1619 42.6826 47.0887C42.5605 47.0155 42.5117 46.9178 42.5117 46.7713V12.8131C42.5117 12.691 42.5605 12.5933 42.6582 12.5201C42.707 12.4713 42.7802 12.4469 42.8535 12.4469C42.9023 12.4469 42.9511 12.4469 42.9755 12.4713L77.2268 25.5566C77.3488 25.6054 77.4465 25.7275 77.4465 25.8495C77.4709 25.9716 77.4221 26.1181 77.3 26.1913ZM42.5117 53.0943C42.5117 52.9722 42.5605 52.8746 42.6582 52.8013C42.707 52.7525 42.7802 52.7281 42.8535 52.7281C42.9023 52.7281 42.9511 52.7281 42.9755 52.7525L81.6943 67.4979C81.8408 67.5467 81.914 67.6688 81.914 67.8152C81.914 67.9617 81.8408 68.0838 81.7187 68.157L42.9999 87.199C42.8779 87.2479 42.7558 87.2479 42.6582 87.1746C42.5605 87.1014 42.4873 87.0037 42.4873 86.8817V53.0943H42.5117ZM39.3136 15.2055V82.5606C39.3136 82.7559 39.1671 82.878 39.0451 82.9024C38.923 82.9268 38.7521 82.9024 38.6545 82.7315L15.6575 41.9376C15.5843 41.8155 15.6087 41.6446 15.7064 41.5226L38.7033 14.9614C38.7765 14.8637 38.8742 14.8393 38.9718 14.8393C39.0207 14.8393 39.0695 14.8393 39.0939 14.8637C39.1915 14.9126 39.3136 15.0346 39.3136 15.2055Z" fill="currentColor" stroke="currentColor"/>
</svg>
