<svg viewBox="0 0 100 100" fill="none" xmlns="http://www.w3.org/2000/svg">
<path d="M73.5708 61.7832L67.6791 55.8915L73.5708 49.9999C75.1184 48.4522 76.3461 46.6148 77.1837 44.5927C78.0213 42.5705 78.4524 40.4032 78.4524 38.2144C78.4524 36.0257 78.0213 33.8584 77.1837 31.8362C76.3461 29.8141 75.1184 27.9767 73.5708 26.429C72.0231 24.8813 70.1857 23.6536 68.1636 22.816C66.1414 21.9784 63.9741 21.5473 61.7853 21.5473C59.5966 21.5473 57.4293 21.9784 55.4071 22.816C53.385 23.6536 51.5476 24.8813 49.9999 26.429L44.1083 32.3207L38.2166 26.429L44.1083 20.5374C48.8096 15.912 55.1481 13.3318 61.7432 13.3586C68.3383 13.3855 74.6556 16.0173 79.3191 20.6807C83.9825 25.3442 86.6143 31.6615 86.6412 38.2566C86.668 44.8517 84.0878 51.1902 79.4624 55.8915L73.5708 61.7832ZM61.7833 73.5707L55.8916 79.4623C53.5771 81.8148 50.8197 83.6858 47.7785 84.9674C44.7373 86.2489 41.4725 86.9156 38.1724 86.929C34.8722 86.9425 31.602 86.3024 28.5505 85.0456C25.499 83.7889 22.7265 81.9405 20.3929 79.6069C18.0593 77.2733 16.2109 74.5008 14.9541 71.4493C13.6974 68.3977 13.0573 65.1276 13.0708 61.8274C13.0842 58.5273 13.7509 55.2624 15.0324 52.2212C16.314 49.1801 18.1849 46.4227 20.5374 44.1082L26.4291 38.2165L32.3208 44.1082L26.4291 49.9999C24.8814 51.5475 23.6537 53.3849 22.8161 55.407C21.9785 57.4292 21.5474 59.5965 21.5474 61.7853C21.5474 63.974 21.9785 66.1413 22.8161 68.1635C23.6537 70.1856 24.8814 72.023 26.4291 73.5707C27.9768 75.1184 29.8141 76.3461 31.8363 77.1837C33.8584 78.0213 36.0258 78.4524 38.2145 78.4524C40.4033 78.4524 42.5706 78.0213 44.5927 77.1837C46.6149 76.3461 48.4522 75.1184 49.9999 73.5707L55.8916 67.679L61.7833 73.5707ZM61.7833 32.3207L67.6791 38.2165L38.2166 67.6749L32.3208 61.7832L61.7833 32.3207Z" fill="currentColor"/>
</svg>
