<svg viewBox="0 0 100 100" xmlns="http://www.w3.org/2000/svg">
<path d="M87.5 18.0147V81.9853C87.5 83.4479 86.919 84.8506 85.8848 85.8848C84.8506 86.919 83.4479 87.5 81.9853 87.5H18.0147C16.5521 87.5 15.1494 86.919 14.1152 85.8848C13.081 84.8506 12.5 83.4479 12.5 81.9853V18.0147C12.5 16.5521 13.081 15.1494 14.1152 14.1152C15.1494 13.081 16.5521 12.5 18.0147 12.5H81.9853C83.4479 12.5 84.8506 13.081 85.8848 14.1152C86.919 15.1494 87.5 16.5521 87.5 18.0147ZM34.5588 41.1765H23.5294V76.4706H34.5588V41.1765ZM35.5515 29.0441C35.5573 28.2098 35.3987 27.3826 35.0848 26.6096C34.7709 25.8366 34.3078 25.133 33.722 24.5389C33.1361 23.9449 32.439 23.4721 31.6705 23.1475C30.9019 22.8229 30.0769 22.6528 29.2426 22.6471H29.0441C27.3475 22.6471 25.7204 23.321 24.5207 24.5207C23.321 25.7204 22.6471 27.3475 22.6471 29.0441C22.6471 30.7407 23.321 32.3678 24.5207 33.5675C25.7204 34.7672 27.3475 35.4412 29.0441 35.4412C29.8785 35.4617 30.7087 35.3176 31.4873 35.0172C32.266 34.7167 32.9778 34.2658 33.5821 33.6902C34.1864 33.1146 34.6714 32.4255 35.0093 31.6624C35.3472 30.8992 35.5314 30.077 35.5515 29.2426V29.0441ZM76.4706 55.0294C76.4706 44.4191 69.7206 40.2941 63.0147 40.2941C60.8191 40.1842 58.633 40.6518 56.6745 41.6504C54.716 42.649 53.0535 44.1437 51.8529 45.9853H51.5441V41.1765H41.1765V76.4706H52.2059V57.6985C52.0464 55.776 52.6521 53.8681 53.8911 52.3895C55.1302 50.9108 56.9027 49.9808 58.8235 49.8015H59.2426C62.75 49.8015 65.3529 52.0074 65.3529 57.5662V76.4706H76.3824L76.4706 55.0294Z" fill="currentColor" stroke="currentColor"/>
</svg>
