<svg viewBox="0 0 100 100" xmlns="http://www.w3.org/2000/svg">
<path fill-rule="evenodd" clip-rule="evenodd" d="M66.5357 71.8493C76.9771 70.6025 86.0684 64.1692 87.2111 58.2907C89.0115 49.0306 88.8628 35.6929 88.8628 35.6929C88.8628 17.6154 77.0189 12.3166 77.0189 12.3166C71.047 9.57377 60.7924 8.42035 50.1387 8.33325H49.877C39.2232 8.42035 28.9754 9.57377 23.0031 12.3166C23.0031 12.3166 11.1587 17.6154 11.1587 35.6929C11.1587 36.7888 11.153 37.9415 11.1471 39.1415C11.1307 42.4742 11.1126 46.1716 11.209 50.0309C11.6391 67.7098 14.4501 85.1332 30.7955 89.4595C38.332 91.4543 44.8026 91.8719 50.0139 91.5854C59.4644 91.0615 64.7695 88.2127 64.7695 88.2127L64.4579 81.356C64.4579 81.356 57.7044 83.4854 50.1199 83.2259C42.6054 82.9682 34.6724 82.4155 33.457 73.1895C33.3448 72.3791 33.2887 71.5126 33.2887 70.6025C33.2887 70.6025 40.6653 72.4056 50.0139 72.834C55.7303 73.0962 61.091 72.499 66.5357 71.8493ZM74.8921 58.9842V37.0953C74.8921 32.6217 73.753 29.0667 71.4655 26.4366C69.1057 23.8065 66.0158 22.4583 62.1807 22.4583C57.7426 22.4583 54.382 24.1639 52.1604 27.5757L50 31.1967L47.84 27.5757C45.618 24.1639 42.2574 22.4583 37.8197 22.4583C33.9841 22.4583 30.8943 23.8065 28.5349 26.4366C26.2469 29.0667 25.1079 32.6217 25.1079 37.0953V58.9842H33.7799V37.7387C33.7799 33.2601 35.6642 30.987 39.4333 30.987C43.6007 30.987 45.6898 33.6835 45.6898 39.0156V50.6445H54.3106V39.0156C54.3106 33.6835 56.3992 30.987 60.5666 30.987C64.3358 30.987 66.2201 33.2601 66.2201 37.7387V58.9842H74.8921Z" fill="currentColor" stroke="currentColor"/>
</svg>
