<svg viewBox="0 0 100 100" fill="black" xmlns="http://www.w3.org/2000/svg">
<path d="M55.8719 50.0286C55.8719 64.4044 44.2973 76.059 30.0188 76.059C15.7403 76.059 4.1665 64.4081 4.1665 50.0286C4.1665 35.6492 15.7412 23.999 30.0188 23.999C44.2965 23.999 55.8719 35.6527 55.8719 50.0286ZM84.2332 50.0286C84.2332 63.5619 78.4453 74.5315 71.3065 74.5315C64.1678 74.5315 58.3798 63.5581 58.3798 50.0286C58.3798 36.4989 64.1678 25.5256 71.3065 25.5256C78.4453 25.5256 84.2332 36.4989 84.2332 50.0286ZM95.8332 50.0286C95.8332 62.1536 93.7973 71.9823 91.2865 71.9823C88.7761 71.9823 86.7402 62.1502 86.7402 50.0286C86.7402 37.907 88.7761 28.0749 91.2878 28.0749C93.799 28.0749 95.8332 37.9044 95.8332 50.0286Z" />
</svg>
