<svg viewBox="0 0 100 100" xmlns="http://www.w3.org/2000/svg">
<path fill-rule="evenodd" clip-rule="evenodd" d="M12.5 48.8752C12.5 27.9742 28.8751 12.5002 50 12.5002C71.1249 12.5002 87.5 27.9742 87.5 48.8752C87.5 69.7762 71.1249 85.2502 50 85.2502C46.2056 85.2502 42.5653 84.7493 39.1449 83.8087C38.48 83.6257 37.773 83.6775 37.142 83.9557L29.6988 87.2415C27.7518 88.101 25.554 86.7165 25.4887 84.5887L25.2845 77.9182C25.2594 77.0962 24.8896 76.3282 24.2771 75.78C16.9805 69.2548 12.5 59.8078 12.5 48.8752ZM38.497 42.0364L27.4814 59.5129C26.4243 61.1901 28.4859 63.0801 30.0652 61.8817L41.8978 52.9015C42.6982 52.294 43.8043 52.2908 44.608 52.8937L53.3695 59.4648C55.9985 61.4367 59.7508 60.7443 61.5031 57.9642L72.5188 40.4875C73.5757 38.8103 71.5141 36.9203 69.9348 38.1188L58.1023 47.0989C57.3018 47.7064 56.1958 47.7097 55.3919 47.1067L46.6306 40.5357C44.0015 38.5639 40.2493 39.2562 38.497 42.0364Z" fill="currentColor" stroke="currentColor"/>
</svg>
