<svg viewBox="0 0 100 100" xmlns="http://www.w3.org/2000/svg">
<path d="M49.9828 8.33325C26.947 8.33325 8.33325 26.9813 8.33325 49.9828C8.33325 67.6367 19.3027 82.7197 34.797 88.7871C34.4199 85.4963 34.1114 80.4229 34.9341 76.8236C35.6883 73.567 39.8018 56.1188 39.8018 56.1188C39.8018 56.1188 38.5678 53.6164 38.5678 49.9485C38.5678 44.1553 41.9271 39.8361 46.1092 39.8361C49.6743 39.8361 51.3883 42.5098 51.3883 45.6978C51.3883 49.2629 49.1258 54.6105 47.926 59.581C46.9319 63.7288 50.0171 67.1225 54.0963 67.1225C61.5007 67.1225 67.1911 59.3068 67.1911 48.0632C67.1911 38.0878 60.0267 31.1291 49.7771 31.1291C37.9164 31.1291 30.9577 40.0074 30.9577 49.1943C30.9577 52.7594 32.3288 56.5987 34.0428 58.6898C34.3857 59.1011 34.4199 59.4782 34.3171 59.8895C34.0086 61.1922 33.2887 64.0373 33.1516 64.6201C32.9802 65.3743 32.5345 65.5457 31.7461 65.1686C26.6042 62.7004 23.3819 55.0904 23.3819 48.9887C23.3819 35.8597 32.9116 23.7933 50.9083 23.7933C65.34 23.7933 76.5837 34.0771 76.5837 47.8574C76.5837 62.2205 67.5338 73.7728 54.9876 73.7728C50.7712 73.7728 46.7948 71.5788 45.4579 68.9736C45.4579 68.9736 43.3668 76.9264 42.8527 78.8803C41.9271 82.514 39.3904 87.0388 37.6764 89.8155C41.5843 91.0153 45.6978 91.6666 50.0171 91.6666C73.0186 91.6666 91.6666 73.0186 91.6666 50.0171C91.6323 26.9813 72.9843 8.33325 49.9828 8.33325Z" fill="currentColor" stroke="currentColor"/>
</svg>
