<svg width="100" height="100" viewBox="0 0 100 100" fill="none" xmlns="http://www.w3.org/2000/svg">
<path d="M50.0042 91.6668C26.9922 91.6668 8.3374 73.0118 8.3374 50.0002C8.3374 26.9883 26.9922 8.3335 50.0042 8.3335C73.0158 8.3335 91.6708 26.9883 91.6708 50.0002C91.6708 73.0118 73.0158 91.6668 50.0042 91.6668ZM55.5604 50.0002H43.7542V37.5002H55.5604C59.0121 37.5002 61.8104 40.2984 61.8104 43.7502C61.8104 47.2018 59.0121 50.0002 55.5604 50.0002ZM55.5604 29.1668H35.4207V70.8335H43.7542V58.3335H55.5604C63.6146 58.3335 70.1437 51.8043 70.1437 43.7502C70.1437 35.696 63.6146 29.1668 55.5604 29.1668Z" fill="black"/>
</svg>
