<svg viewBox="0 0 100 100" fill="black" xmlns="http://www.w3.org/2000/svg">
<path d="M46.0523 32.5642L49.184 17.831C50.1411 13.3292 54.5661 10.4555 59.0682 11.4123L72.3852 14.243C74.3128 12.1062 77.2952 11.0269 80.3123 11.6682C84.814 12.6251 87.6878 17.0502 86.7311 21.552C85.774 26.0538 81.349 28.9275 76.8473 27.9707C73.8302 27.3294 71.5444 25.1302 70.6527 22.3942L57.3352 19.5635L54.5594 32.6242C61.9953 33.1952 69.384 35.67 76.0753 39.7068C79.5382 37.7819 83.7465 37.4725 87.529 39.0039C92.3877 40.9709 95.6377 45.608 95.8294 50.8463L95.8315 50.9338C95.8961 55.1155 93.9957 59.0238 90.7998 61.5592C90.7911 61.7409 90.7794 61.9126 90.7648 62.0713C90.7648 78.7288 72.2252 91.3613 49.9382 91.3613C27.7178 91.3613 9.48704 78.7613 9.49929 62.3909C9.47996 62.1392 9.46492 61.8876 9.45421 61.6359C6.11238 59.1138 4.10284 55.1155 4.16804 50.8176C4.24796 45.5488 7.43071 40.8241 12.2833 38.7705C16.0794 37.1641 20.3373 37.4292 23.8486 39.3493C30.6573 35.2773 38.1572 32.9685 46.0523 32.5642ZM84.7436 55.5876C86.444 54.7426 87.5123 53.003 87.5002 51.1067C87.4119 49.1688 86.2028 47.4572 84.4019 46.728C82.5873 45.9934 80.5107 46.393 79.0986 47.7488L76.6628 50.0863L73.8707 48.1884C67.1403 43.6134 59.4878 40.9988 52.0811 40.839L47.8873 40.8385C40.0745 40.9563 32.6722 43.3342 26.0645 47.8155L23.3018 49.6892L20.8705 47.4017C19.4374 46.0534 17.3433 45.678 15.5311 46.4451C13.7189 47.2117 12.5303 48.9763 12.4998 50.9438C12.4706 52.9113 13.6051 54.7113 15.3932 55.5326L18.0306 56.7442L17.8081 59.6384C17.754 60.3417 17.754 61.0484 17.8204 62.0713C17.8204 73.363 31.8045 83.028 49.9382 83.028C68.1502 83.028 82.4315 73.2972 82.4436 61.7522C82.4978 61.0484 82.4978 60.3417 82.4436 59.6384L82.2282 56.838L84.7436 55.5876ZM28.9613 56.2497C28.9613 52.798 31.7595 49.9997 35.2113 49.9997C38.6631 49.9997 41.4613 52.798 41.4613 56.2497C41.4613 59.7013 38.6631 62.4997 35.2113 62.4997C33.5537 62.4997 31.964 61.8413 30.7919 60.6692C29.6198 59.4972 28.9613 57.9072 28.9613 56.2497ZM58.1277 56.2497C58.1277 52.798 60.9261 49.9997 64.3777 49.9997C67.8298 49.9997 70.6278 52.798 70.6278 56.2497C70.6278 59.7013 67.8298 62.4997 64.3777 62.4997C62.7202 62.4997 61.1307 61.8413 59.9586 60.6692C58.7865 59.4972 58.1277 57.9072 58.1277 56.2497ZM49.8602 77.5117C44.0386 77.5117 38.3329 75.9705 33.6875 72.4701C33.1106 71.7672 33.161 70.7413 33.804 70.0984C34.4469 69.4555 35.4727 69.4051 36.1756 69.9817C40.1122 72.8692 45.0207 74.1067 49.7944 74.1067C54.5686 74.1067 59.5052 72.9634 63.479 70.113C63.9469 69.6567 64.6227 69.4847 65.2515 69.6617C65.8807 69.8388 66.3673 70.338 66.5286 70.9713C66.6894 71.6047 66.4652 72.2276 66.0327 72.7317C63.1823 76.0547 55.6815 77.5117 49.8602 77.5117Z" />
</svg>
