<svg viewBox="0 0 100 100" xmlns="http://www.w3.org/2000/svg">
<path d="M91.3653 68.9923C90.7908 67.4175 89.6842 66.5664 88.4287 65.8854C88.1946 65.7577 87.9818 65.63 87.7903 65.5449C87.4073 65.3534 87.0242 65.1619 86.6412 64.9704C82.7257 62.8849 79.6614 60.2888 77.5547 57.1819C76.9589 56.3095 76.4269 55.3732 76.0013 54.4156C75.8098 53.9049 75.831 53.6069 75.9587 53.3303C76.0864 53.1175 76.2566 52.9473 76.4694 52.7983C77.1504 52.3514 77.8314 51.9046 78.2995 51.6066C79.1294 51.0534 79.8104 50.6278 80.236 50.3298C81.832 49.202 82.9598 48.0103 83.662 46.6697C84.6622 44.7971 84.7898 42.6053 84.0238 40.6262C82.9598 37.8173 80.3211 36.0936 77.1078 36.0936C76.4269 36.0936 75.7672 36.1575 75.0863 36.3064C74.916 36.349 74.7245 36.3916 74.5543 36.4341C74.5755 34.5189 74.533 32.4974 74.3627 30.4971C73.7669 23.496 71.2984 19.8359 68.7449 16.9205C67.1063 15.0905 65.1911 13.537 63.0419 12.3241C59.1689 10.111 54.764 8.98315 49.9761 8.98315C45.1881 8.98315 40.8045 10.111 36.9315 12.3241C34.7823 13.537 32.8671 15.0905 31.2285 16.9205C28.675 19.8359 26.2278 23.5173 25.6107 30.4971C25.4404 32.4974 25.3979 34.5189 25.4191 36.4341C25.2489 36.3916 25.0787 36.349 24.8872 36.3064C24.2275 36.1575 23.5465 36.0936 22.8869 36.0936C19.6736 36.0936 17.0349 37.8386 15.9709 40.6262C15.2048 42.6053 15.3325 44.7971 16.3327 46.6697C17.0349 48.0103 18.1627 49.202 19.7587 50.3298C20.1843 50.6278 20.844 51.0534 21.6952 51.6066C22.1421 51.9046 22.8017 52.3302 23.4614 52.7557C23.6955 52.9047 23.887 53.0962 24.036 53.3303C24.1636 53.6069 24.1849 53.9049 23.9721 54.4581C23.5465 55.3944 23.0358 56.3095 22.44 57.1607C20.3758 60.1824 17.3967 62.7573 13.6088 64.8214C11.6085 65.8854 9.52312 66.5876 8.62937 68.9923C7.9697 70.801 8.39529 72.8439 10.0764 74.5889C10.6935 75.2272 11.417 75.7805 12.2044 76.2061C13.8429 77.0999 15.5879 77.8021 17.4179 78.2915C17.801 78.3979 18.1414 78.5469 18.4606 78.7597C19.0778 79.2917 18.9926 80.1003 19.8013 81.292C20.2056 81.9091 20.7376 82.4411 21.3334 82.8667C23.0571 84.0584 24.9936 84.1222 27.0364 84.2073C28.8878 84.2712 30.9732 84.3563 33.3778 85.1436C34.378 85.4628 35.3994 86.1012 36.5911 86.846C39.4638 88.6123 43.3793 91.0169 49.9548 91.0169C56.5302 91.0169 60.467 88.591 63.3611 86.8247C64.5527 86.1012 65.5742 85.4628 66.5318 85.1436C68.9151 84.3563 71.0218 84.2712 72.8732 84.2073C74.916 84.1222 76.8525 84.0584 78.5761 82.8667C79.2997 82.356 79.8955 81.7176 80.3211 80.9515C80.9169 79.9514 80.8956 79.2491 81.4489 78.7597C81.7468 78.5469 82.0873 78.3979 82.4278 78.3128C84.2579 77.8234 86.0454 77.1211 87.7052 76.2061C88.5351 75.7592 89.3012 75.1634 89.9396 74.4612L89.9609 74.4399C91.6207 72.7375 92.025 70.7372 91.3653 68.9923ZM85.5346 72.1204C81.9809 74.0781 79.5976 73.8653 77.7675 75.057C76.1928 76.0572 77.1291 78.2277 76.0013 79.0151C74.5968 79.9726 70.4685 78.9512 65.1486 80.7174C60.7437 82.1645 57.956 86.3566 50.0399 86.3566C42.1238 86.3566 39.4 82.1857 34.9312 80.7174C29.6113 78.9512 25.483 79.9939 24.0785 79.0151C22.9507 78.2277 23.8657 76.0572 22.3123 75.057C20.461 73.8653 18.0989 74.0781 14.5452 72.1204C12.2682 70.8649 13.5663 70.0988 14.3111 69.737C27.2067 63.5021 29.2708 53.8623 29.3559 53.1388C29.4623 52.2663 29.59 51.5854 28.6324 50.7129C27.7174 49.8617 23.6316 47.3294 22.4825 46.542C20.6099 45.2227 19.78 43.9246 20.3971 42.3074C20.8227 41.2008 21.8654 40.7752 22.9507 40.7752C23.2912 40.7752 23.6316 40.8178 23.9721 40.8816C26.0363 41.3285 28.0366 42.3499 29.1857 42.6478C29.3346 42.6904 29.4623 42.7117 29.6113 42.7117C30.2284 42.7117 30.4412 42.3925 30.3986 41.6902C30.2709 39.4346 29.9517 35.0509 30.3135 30.9439C30.8029 25.3048 32.6117 22.4958 34.7823 20.0274C35.825 18.8357 40.6981 13.686 50.0399 13.686C59.3817 13.686 64.2548 18.8144 65.2975 20.0061C67.4681 22.4746 69.2769 25.2835 69.7663 30.9226C70.1281 35.0297 69.8089 39.4133 69.6599 41.669C69.6173 42.4138 69.8301 42.6904 70.4473 42.6904C70.5962 42.6904 70.7239 42.6691 70.8728 42.6266C72.022 42.3499 74.0223 41.3072 76.0864 40.8603C76.4269 40.7752 76.7674 40.7539 77.1078 40.7539C78.1931 40.7539 79.2358 41.1795 79.6614 42.2861C80.2785 43.9033 79.4486 45.2014 77.576 46.5208C76.4482 47.3081 72.3624 49.8404 71.4261 50.6916C70.4685 51.5641 70.5962 52.245 70.7026 53.1175C70.7877 53.841 72.8519 63.4808 85.7474 69.7158C86.5135 70.0775 87.7903 70.8649 85.5346 72.1204Z" fill="currentColor" stroke="currentColor"/>
</svg>
