<svg width="100" height="100" viewBox="0 0 100 100" fill="none" xmlns="http://www.w3.org/2000/svg">
<path d="M43.6 35.817C44.7046 35.817 45.6 44.5922 45.6 55.4172L45.5946 56.8797C45.5183 67.0213 44.6542 75.0172 43.6 75.0172C42.5329 75.0172 41.6613 66.8301 41.6031 56.5167L41.6003 55.0488C41.6204 44.3938 42.5079 35.817 43.6 35.817ZM36.6667 39.817C37.7443 39.817 38.6229 47.3172 38.6651 56.7092V58.1247C38.6229 67.5167 37.7443 75.0172 36.6667 75.0172C35.6025 75.0172 34.7325 67.7034 34.6702 58.4763L34.6671 57.0622L34.6767 55.6434C34.7777 46.7559 35.6301 39.817 36.6667 39.817ZM29.7333 39.817C30.7975 39.817 31.6675 47.1309 31.7298 56.358L31.7329 57.7717L31.7233 59.1905C31.6222 68.078 30.7699 75.0172 29.7333 75.0172C28.6557 75.0172 27.7771 67.5167 27.7349 58.1247V56.7092C27.7771 47.3172 28.6557 39.817 29.7333 39.817ZM22.8 42.2172C23.9046 42.2172 24.8 49.5597 24.8 58.6172L24.7928 60.0138C24.7064 68.4176 23.8472 75.0172 22.8 75.0172C21.7098 75.0172 20.8233 67.8638 20.8005 58.9688V58.2651C20.8233 49.3701 21.7098 42.2172 22.8 42.2172ZM15.8667 49.4172C16.9713 49.4172 17.8667 55.1476 17.8667 62.2172L17.8641 62.8755C17.8105 69.6388 16.9367 75.0172 15.8667 75.0172C14.7621 75.0172 13.8667 69.2863 13.8667 62.2172L13.8692 61.5584C13.9228 54.7951 14.7966 49.4172 15.8667 49.4172ZM60.8 29.417C71.5529 29.417 80.4704 37.2742 82.125 47.5605C83.3554 47.2063 84.6554 47.0172 86 47.0172C93.7321 47.0172 100 53.2851 100 61.0172C100 68.6609 93.8737 74.8742 86.2629 75.0147L86 75.0172H52C50.2325 75.0172 48.8 73.5842 48.8 71.8172V33.0541C52.2325 30.7567 56.3596 29.417 60.8 29.417ZM8.93333 48.6172C10.0379 48.6172 10.9333 54.1688 10.9333 61.0172L10.9307 61.6651C10.8762 68.2122 10.0028 73.4172 8.93333 73.4172C7.84629 73.4172 6.96183 68.0401 6.934 61.3422L6.93333 61.0172C6.93333 54.1688 7.82875 48.6172 8.93333 48.6172ZM2 52.6172C3.10457 52.6172 4 56.5567 4 61.4172L3.99621 61.963C3.93212 66.5688 3.06289 70.2172 2 70.2172C0.895429 70.2172 0 66.2772 0 61.4172L0.00378839 60.8709C0.0678775 56.2651 0.937112 52.6172 2 52.6172Z" fill="black"/>
</svg>
