<svg viewBox="0 0 100 100" fill="black" xmlns="http://www.w3.org/2000/svg">
<path d="M50.0042 8.3335C27.0874 8.3335 8.3374 27.0835 8.3374 50.0002C8.3374 72.9168 27.0874 91.6668 50.0042 91.6668C72.9208 91.6668 91.6708 72.9168 91.6708 50.0002C91.6708 27.0835 73.1292 8.3335 50.0042 8.3335ZM65.6292 69.3752C55.8375 63.3335 43.5458 62.0802 28.9589 65.4135C27.5075 65.8368 26.2541 64.7918 25.8374 63.5418C25.4207 62.0802 26.4624 60.8335 27.7124 60.4168C43.5458 56.8718 57.2958 58.3335 68.1291 65.0002C69.5875 65.6252 69.7921 67.2885 69.1742 68.5418C68.3408 69.7885 66.8825 70.2085 65.6292 69.3752ZM69.7921 58.1252C58.5458 51.2502 41.4624 49.1668 28.3374 53.3335C26.6742 53.7502 24.7957 52.9168 24.3791 51.2502C23.9624 49.5835 24.7957 47.7052 26.4624 47.2885C41.6708 42.7085 60.4208 45.0035 73.3375 52.9168C74.5908 53.5452 75.2125 55.6252 74.1741 57.0835C73.1292 58.5418 71.2541 59.1668 69.7921 58.1252ZM26.2541 40.6286C24.1707 41.2502 22.0874 40.0002 21.4624 38.1252C20.8374 36.0384 22.0874 33.9585 23.9624 33.33C38.7541 28.955 63.1292 29.7884 78.5491 38.9585C80.4208 40.0002 81.0458 42.5002 80.0042 44.3752C78.9658 45.8368 76.4625 46.4552 74.5908 45.4168C61.2542 37.5002 38.9624 36.6668 26.2541 40.6286Z" />
</svg>
