<svg viewBox="0 0 100 100" xmlns="http://www.w3.org/2000/svg">
<path fill-rule="evenodd" clip-rule="evenodd" d="M91.6666 49.9999C91.6666 73.0118 73.0118 91.6666 49.9999 91.6666C26.9881 91.6666 8.33325 73.0118 8.33325 49.9999C8.33325 26.9881 26.9881 8.33325 49.9999 8.33325C73.0118 8.33325 91.6666 26.9881 91.6666 49.9999ZM51.493 39.0935C47.4403 40.7791 39.3406 44.268 27.1939 49.5601C25.2215 50.3445 24.1882 51.1118 24.0942 51.8621C23.9352 53.1302 25.5232 53.6295 27.6855 54.3094C27.9796 54.4019 28.2844 54.4978 28.5968 54.5993C30.7243 55.2909 33.586 56.0999 35.0738 56.132C36.4233 56.1612 37.9295 55.6048 39.5923 54.463C50.9414 46.8021 56.7998 42.9299 57.1676 42.8464C57.4271 42.7875 57.7866 42.7134 58.0303 42.93C58.2739 43.1465 58.25 43.5566 58.2242 43.6667C58.0668 44.3373 51.8336 50.1322 48.6079 53.1312C47.6023 54.0661 46.889 54.7292 46.7432 54.8807C46.4165 55.2199 46.0836 55.5409 45.7637 55.8493C43.7872 57.7546 42.3051 59.1834 45.8457 61.5166C47.5472 62.6379 48.9087 63.565 50.267 64.49C51.7504 65.5003 53.23 66.5079 55.1443 67.7627C55.632 68.0824 56.0978 68.4145 56.5515 68.7379C58.2779 69.9687 59.8288 71.0744 61.7449 70.898C62.8583 70.7956 64.0084 69.7487 64.5925 66.6262C65.9728 59.247 68.686 43.2585 69.3131 36.67C69.368 36.0928 69.2989 35.354 69.2434 35.0297C69.1879 34.7054 69.072 34.2434 68.6504 33.9013C68.1512 33.4963 67.3805 33.4108 67.0358 33.4169C65.4687 33.4445 63.0643 34.2806 51.493 39.0935Z" fill="currentColor" stroke="currentColor"/>
</svg>
