<svg viewBox="0 0 100 100" xmlns="http://www.w3.org/2000/svg">
<path d="M75.4815 25.0372C70.9926 22.1104 67.7527 17.4275 66.7421 11.9685C66.5237 10.7891 66.4038 9.57522 66.4038 8.33325H52.0771L52.0541 65.7498C51.8133 72.1794 46.5214 77.3399 40.0341 77.3399C38.0178 77.3399 36.1192 76.8358 34.4476 75.9562C30.6143 73.9389 27.991 69.9208 27.991 65.297C27.991 58.6562 33.3938 53.2534 40.0341 53.2534C41.2736 53.2534 42.4627 53.4579 43.5875 53.8102V39.1843C42.4235 39.0258 41.2408 38.9267 40.0341 38.9267C25.4935 38.9267 13.6643 50.7564 13.6643 65.297C13.6643 74.2183 18.1216 82.1133 24.9217 86.8873C29.205 89.8944 34.4151 91.6666 40.0341 91.6666C54.5746 91.6666 66.4038 79.8376 66.4038 65.297V36.1819C72.0229 40.215 78.9072 42.5916 86.3359 42.5916V28.2649C82.3342 28.2649 78.6072 27.0753 75.4815 25.0372Z" fill="currentColor" stroke="currentColor"/>
</svg>
