<svg viewBox="0 0 100 100" xmlns="http://www.w3.org/2000/svg">
<path d="M36.5557 54.2221C36.5557 55.6836 36.1224 57.1122 35.3105 58.3273C34.4985 59.5425 33.3445 60.4896 31.9943 61.0488C30.6441 61.6081 29.1584 61.7544 27.725 61.4693C26.2917 61.1842 24.9751 60.4805 23.9417 59.4471C22.9083 58.4137 22.2045 57.097 21.9194 55.6637C21.6343 54.2303 21.7806 52.7446 22.3399 51.3944C22.8992 50.0442 23.8462 48.8902 25.0614 48.0783C26.2765 47.2663 27.7051 46.833 29.1666 46.833C31.1263 46.833 33.0058 47.6115 34.3915 48.9972C35.7773 50.3829 36.5557 52.2624 36.5557 54.2221ZM70.8148 46.833C69.3533 46.833 67.9247 47.2663 66.7096 48.0783C65.4944 48.8902 64.5474 50.0442 63.9881 51.3944C63.4288 52.7446 63.2825 54.2303 63.5676 55.6637C63.8527 57.097 64.5565 58.4137 65.5899 59.4471C66.6232 60.4805 67.9399 61.1842 69.3732 61.4693C70.8066 61.7544 72.2923 61.6081 73.6425 61.0488C74.9927 60.4896 76.1467 59.5425 76.9586 58.3273C77.7706 57.1122 78.2039 55.6836 78.2039 54.2221C78.2034 52.2635 77.4252 50.3852 76.0404 49C74.6556 47.6148 72.7775 46.8361 70.8189 46.835L70.8148 46.833ZM91.6481 54.2221C91.6481 65.7215 82.3172 75.0442 70.8148 75.0442C65.5679 75.0527 60.5127 73.0725 56.6676 69.5023L49.9999 76.757L43.3291 69.4941C39.4843 73.0681 34.4273 75.0514 29.1779 75.0442C17.6836 75.0442 8.35583 65.7215 8.35583 54.2221C8.35193 51.3252 8.95418 48.4595 10.1239 45.8092C11.2936 43.1589 13.0048 40.7827 15.1477 38.8332L8.33325 31.4194H23.4728C31.3008 26.092 40.5506 23.2432 50.0194 23.2432C59.4882 23.2432 68.738 26.092 76.566 31.4194H91.6666L84.8532 38.8332C86.9968 40.7823 88.7088 43.1584 89.8792 45.8087C91.0496 48.459 91.6525 51.3249 91.6491 54.2221H91.6481ZM43.2635 54.2221C43.2635 51.435 42.437 48.7105 40.8885 46.3931C39.34 44.0757 37.1392 42.2695 34.5642 41.203C31.9892 40.1364 29.1557 39.8574 26.4222 40.4012C23.6886 40.945 21.1777 42.2873 19.207 44.2581C17.2363 46.229 15.8942 48.74 15.3506 51.4736C14.807 54.2072 15.0862 57.0406 16.1529 59.6155C17.2197 62.1904 19.026 64.3912 21.3435 65.9395C23.661 67.4878 26.3856 68.3141 29.1727 68.3139C31.0233 68.314 32.8558 67.9496 34.5656 67.2415C36.2753 66.5334 37.8288 65.4954 39.1374 64.1868C40.446 62.8782 41.484 61.3247 42.1921 59.615C42.9002 57.9052 43.2646 56.0727 43.2645 54.2221H43.2635ZM65.6362 33.1835C60.6808 31.119 55.3656 30.056 49.9974 30.056C44.6291 30.056 39.3139 31.119 34.3585 33.1835C43.2553 36.5887 49.9999 44.5423 49.9999 53.8157C49.9999 44.5434 56.7436 36.5887 65.6372 33.1846L65.6362 33.1835ZM84.9096 54.2221C84.9096 51.435 84.0831 48.7105 82.5346 46.3931C80.9862 44.0757 78.7853 42.2695 76.2103 41.203C73.6353 40.1364 70.8019 39.8574 68.0683 40.4012C65.3348 40.945 62.8239 42.2873 60.8531 44.2581C58.8824 46.229 57.5404 48.74 56.9968 51.4736C56.4531 54.2072 56.7323 57.0406 57.7991 59.6155C58.8658 62.1904 60.6721 64.3912 62.9896 65.9395C65.3072 67.4878 68.0318 68.3141 70.8189 68.3139C74.5563 68.3139 78.1405 66.8292 80.7833 64.1865C83.426 61.5438 84.9106 57.9595 84.9106 54.2221H84.9096Z" fill="currentColor" stroke="currentColor"/>
</svg>
