<svg viewBox="0 0 100 100" xmlns="http://www.w3.org/2000/svg">
<path d="M83.1352 33.0002C83.186 33.7349 83.186 34.4695 83.186 35.2109C83.186 57.8022 65.9878 83.8567 34.5402 83.8567V83.8432C25.2504 83.8567 16.1537 81.1957 8.33325 76.1785C9.68405 76.341 11.0416 76.4222 12.4026 76.4256C20.1011 76.4324 27.5796 73.8493 33.6363 69.0927C26.3203 68.9539 19.9048 64.1838 17.6636 57.2199C20.2264 57.7141 22.8671 57.6126 25.3825 56.9253C17.4063 55.3138 11.6679 48.3059 11.6679 40.1672C11.6679 40.0928 11.6679 40.0217 11.6679 39.9506C14.0445 41.2743 16.7055 42.0089 19.4274 42.0902C11.9151 37.0695 9.59942 27.0756 14.1359 19.262C22.8163 29.9431 35.6235 36.4365 49.3719 37.1237C47.994 31.1856 49.8764 24.9631 54.3181 20.7888C61.2041 14.3158 72.0342 14.6476 78.5073 21.5302C82.3362 20.7753 86.0061 19.3703 89.3645 17.3797C88.0882 21.3373 85.417 24.699 81.8487 26.8353C85.2376 26.4358 88.5486 25.5285 91.6666 24.1438C89.3712 27.5835 86.48 30.5796 83.1352 33.0002Z" fill="currentColor" stroke="currentColor"/>
</svg>
