<svg viewBox="0 0 100 100" xmlns="http://www.w3.org/2000/svg">
<path d="M76.7381 8.3335C60.0127 10.6444 44.5684 27.5893 36.4121 41.1783C23.7668 62.2461 21.5783 91.7869 22.6363 91.666C23.2812 91.8027 30.8798 75.0383 34.8314 68.7157C41.154 64.764 48.6622 58.8366 48.6622 58.8366C48.6622 58.8366 37.9349 62.5164 38.7831 61.2076C40.3195 58.8366 42.5708 56.5267 42.5708 56.5267C60.4689 50.5581 64.4023 41.1783 64.4023 41.1783C64.4023 41.1783 59.1922 42.4863 57.0761 42.7274C54.2545 43.0487 52.5265 42.9595 51.4283 42.7274C55.5312 37.9727 59.0888 35.4838 62.888 34.3365C65.9819 33.2695 71.6223 29.7368 75.5333 26.4332C78.776 21.1644 77.3913 14.068 76.7381 8.3335Z" fill="currentColor" stroke="currentColor"/>
<path d="M63.2832 90.8447C66.9933 90.8447 70.001 87.8371 70.001 84.127C70.001 80.4168 66.9933 77.4092 63.2832 77.4092C59.5731 77.4092 56.5654 80.4168 56.5654 84.127C56.5654 87.8371 59.5731 90.8447 63.2832 90.8447Z" fill="currentColor" stroke="currentColor"/>
</svg>
