<svg width="100" height="100" viewBox="0 0 100 100" fill="none" xmlns="http://www.w3.org/2000/svg">
<path d="M4.89366 34.588C3.71904 32.8649 3.84368 32.8649 6.25783 30.7445C11.3913 26.2355 16.2352 21.3048 21.8262 17.3617C26.8896 13.8119 33.6009 11.5217 38.1862 17.1675C42.4131 22.3703 42.5127 30.2566 43.5831 36.5397C44.6535 43.0567 45.6793 49.7233 47.9643 55.9617C48.5968 57.7142 49.8064 61.03 51.9972 61.3088C54.8202 61.6971 57.6977 56.7433 59.0072 54.8913C62.4127 49.9771 67.0281 43.3554 66.4456 37.0326C65.8727 30.3163 58.6189 31.5809 54.0881 33.184C54.8152 25.6463 61.8302 17.1725 68.5864 14.3048C75.7506 11.3325 86.4052 11.3823 90.0047 19.4627C93.8481 28.2203 90.3931 38.3918 86.206 46.3279C81.6356 54.9458 75.7506 62.9217 69.4627 70.37C63.9164 76.9867 57.3543 84.2454 49.0847 87.4071C39.64 91.0067 34.044 83.9917 30.8277 75.8663C27.3177 67.0192 25.5702 57.0917 23.0361 47.8813C21.9706 43.9879 20.706 39.5568 18.1768 36.3455C14.876 32.1982 11.127 36.0966 7.86595 38.332C6.74575 37.2218 5.81971 35.8028 4.89366 34.588Z" fill="black"/>
</svg>
