<svg viewBox="0 0 100 100" fill="none" xmlns="http://www.w3.org/2000/svg">
<path d="M49.665 91.33C26.654 91.33 8 72.6758 8 49.665C8 26.654 26.654 8 49.665 8C72.6758 8 91.33 26.654 91.33 49.665C91.33 72.6758 72.6758 91.33 49.665 91.33ZM40.1238 81.6112C36.1132 73.1053 33.6545 63.7236 33.1128 53.8315H16.5909C18.2413 67.0664 27.6508 77.8918 40.1238 81.6112ZM41.4599 53.8315C42.0866 63.9928 44.9894 73.5378 49.665 81.9637C54.3406 73.5378 57.2435 63.9928 57.8701 53.8315H41.4599ZM82.7391 53.8315H66.2173C65.6756 63.7236 63.217 73.1053 59.2063 81.6112C71.6791 77.8918 81.0887 67.0664 82.7391 53.8315ZM16.5909 45.4985H33.1128C33.6545 35.6063 36.1132 26.2246 40.1238 17.7186C27.6508 21.4383 18.2413 32.2636 16.5909 45.4985ZM41.4599 45.4985H57.8701C57.2435 35.3373 54.3406 25.792 49.665 17.3663C44.9894 25.792 42.0866 35.3373 41.4599 45.4985ZM59.2063 17.7186C63.217 26.2246 65.6756 35.6063 66.2173 45.4985H82.7391C81.0887 32.2636 71.6791 21.4383 59.2063 17.7186Z" fill="currentColor"/>
</svg>
