<svg viewBox="0 0 100 100" fill="black" xmlns="http://www.w3.org/2000/svg">
<path d="M77.3972 57.1308C79.476 57.1308 81.1389 55.3638 81.1389 53.3892C81.1389 51.3104 79.476 49.6479 77.3972 49.6479C75.3189 49.6479 73.656 51.3104 73.656 53.3892C73.656 55.4679 75.3189 57.1308 77.3972 57.1308ZM58.9572 57.1308C61.0356 57.1308 62.6985 55.3638 62.6985 53.3892C62.6985 51.3104 61.0356 49.6479 58.9572 49.6479C56.8785 49.6479 55.2156 51.3104 55.2156 53.3892C55.2156 55.4679 56.8785 57.1308 58.9572 57.1308ZM86.321 78.1317C85.8093 78.4388 85.5022 78.9508 85.6047 79.6675C85.6047 79.8721 85.6047 80.0771 85.7068 80.2817C86.1164 82.0225 86.9347 84.7875 86.9347 84.89C86.9347 85.1971 87.0372 85.4017 87.0372 85.6067C87.0372 86.1188 86.6281 86.5283 86.1164 86.5283C85.9114 86.5283 85.8093 86.4258 85.6047 86.3233L79.5672 82.8417C79.1576 82.6371 78.646 82.4321 78.1343 82.4321C77.8276 82.4321 77.5206 82.4321 77.316 82.5346C74.4506 83.3537 71.4831 83.7633 68.311 83.7633C53.0635 83.7633 40.7841 73.5233 40.7841 60.8262C40.7841 48.1287 53.0635 37.8887 68.311 37.8887C83.5581 37.8887 95.8376 48.1287 95.8376 60.8262C95.8376 67.6867 92.1535 73.9329 86.321 78.1317ZM69.4739 33.7399C69.0876 33.728 68.7001 33.722 68.311 33.722C50.9164 33.722 36.6174 45.64 36.6174 60.8262C36.6174 63.1329 36.9474 65.3642 37.5679 67.4896H37.1964C33.5041 67.4896 29.8119 66.8762 26.4272 65.9567C26.1196 65.8542 25.8119 65.8542 25.5042 65.8542C24.8888 65.8542 24.2734 66.0587 23.7606 66.3654L16.4786 70.5558C16.2734 70.6583 16.0683 70.7604 15.8631 70.7604C15.2478 70.7604 14.735 70.2496 14.735 69.6362C14.735 69.3296 14.8375 69.125 14.9401 68.8183C15.0426 68.7162 15.9657 65.3433 16.4786 63.2992C16.4786 63.0946 16.5811 62.7879 16.5811 62.5837C16.5811 61.7658 16.1709 61.1525 15.658 60.7437C8.58115 55.7354 4.1709 48.2742 4.1709 39.9948C4.1709 24.7654 19.0426 12.5 37.299 12.5C52.9822 12.5 66.1676 21.5357 69.4739 33.7399ZM47.9997 35.4835C50.3864 35.4835 52.276 33.4946 52.276 31.2075C52.276 28.8209 50.3864 26.9315 47.9997 26.9315C45.6131 26.9315 43.7239 28.8209 43.7239 31.2075C43.7239 33.5941 45.6131 35.4835 47.9997 35.4835ZM26.0854 35.4835C28.472 35.4835 30.3614 33.4946 30.3614 31.2075C30.3614 28.8209 28.472 26.9315 26.0854 26.9315C23.6988 26.9315 21.8094 28.8209 21.8094 31.2075C21.8094 33.5941 23.6988 35.4835 26.0854 35.4835Z"/>
</svg>
