<svg viewBox="0 0 100 100" xmlns="http://www.w3.org/2000/svg">
<path d="M50.1573 13.7095C29.5734 13.7095 12.8218 29.8442 12.8145 49.6732C12.8097 56.0143 14.5323 62.203 17.7984 67.6538L12.5 86.2901L32.2976 81.2893C37.8046 84.17 43.9278 85.6726 50.1427 85.6683H50.1573C70.7411 85.6683 87.4927 69.5312 87.5 49.7022C87.5048 40.0974 83.6242 31.0562 76.5718 24.2603C69.5218 17.4619 60.1468 13.7119 50.1573 13.7095ZM50.1573 79.5933H50.1452C44.5758 79.5933 39.1129 78.1514 34.3468 75.4272L33.2097 74.7788L21.4661 77.745L24.6016 66.7127L23.8637 65.5829C20.7643 60.8558 19.1144 55.3258 19.1169 49.6732C19.1242 33.1901 33.05 19.7845 50.1694 19.7845C58.4581 19.7869 66.2508 22.9006 72.1129 28.5498C77.975 34.199 81.2 41.7111 81.1952 49.6998C81.1879 66.1829 67.2645 79.5933 50.1548 79.5933H50.1573ZM67.1823 57.2022C66.2484 56.7546 61.6613 54.5796 60.8048 54.2772C59.9508 53.9796 59.329 53.8248 58.7073 54.7248C58.0879 55.6248 56.2976 57.6498 55.7556 58.2474C55.2089 58.8474 54.6645 58.92 53.7306 58.4724C52.7968 58.0224 49.7895 57.074 46.2282 54.0111C43.4532 51.6304 41.5806 48.6885 41.0363 47.7861C40.4919 46.8885 40.9782 46.4022 41.4452 45.9546C41.8637 45.5554 42.379 44.9071 42.8435 44.3821C43.3081 43.8571 43.4629 43.4821 43.7774 42.8821C44.0871 42.2845 43.9323 41.7571 43.6976 41.3095C43.4629 40.8571 41.6 36.4345 40.8185 34.6369C40.0637 32.8853 39.2944 33.12 38.721 33.0909C38.1766 33.0667 37.5573 33.0595 36.9306 33.0595C36.3137 33.0595 35.3 33.2845 34.4435 34.1845C33.5895 35.0845 31.1774 37.2571 31.1774 41.6796C31.1774 46.1046 34.521 50.3772 34.9879 50.9772C35.4548 51.5748 41.5685 60.6546 50.929 64.5498C53.1548 65.4716 54.8919 66.0256 56.2492 66.4417C58.4847 67.1264 60.5193 67.0272 62.1258 66.7974C63.9161 66.5385 67.6468 64.6248 68.421 62.5272C69.2 60.4296 69.2 58.6296 68.9677 58.2546C68.7403 57.8796 68.1161 57.6546 67.1823 57.2022Z" fill="currentColor" stroke="currentColor"/>
</svg>
