<svg viewBox="0 0 100 100" xmlns="http://www.w3.org/2000/svg">
<path d="M38.5443 60.9122L42.3815 60.0254C42.4622 60.0069 42.5955 59.9763 42.7584 59.9237C43.8171 59.6387 44.7244 58.9542 45.2891 58.0133C45.8539 57.0729 46.0321 55.9499 45.7861 54.8813C45.7807 54.8578 45.7756 54.8355 45.7702 54.8121C45.6441 54.2999 45.4233 53.8157 45.1192 53.3852C44.6891 52.8393 44.157 52.3831 43.5525 52.0414C42.8409 51.6354 42.0961 51.2903 41.3261 51.0102L37.1188 49.4744C34.7577 48.5967 32.3967 47.7409 30.0135 46.9063C28.4681 46.3563 27.1586 45.8736 26.0208 45.5217C25.8061 45.4556 25.5692 45.3894 25.3765 45.3229C24.001 44.9013 23.0346 44.7265 22.2167 44.7208C21.6704 44.7007 21.1262 44.8 20.622 45.0116C20.0965 45.2382 19.6246 45.5731 19.2371 45.9946C19.0443 46.2138 18.8631 46.4429 18.6941 46.6807C18.5355 46.9233 18.3901 47.1739 18.2585 47.4321C18.1135 47.7092 17.989 47.9961 17.8858 48.2909C17.1049 50.5993 16.716 53.0219 16.735 55.4585C16.7491 57.661 16.8083 60.4881 18.019 62.4045C18.3107 62.8963 18.7022 63.3215 19.1682 63.6526C20.0307 64.248 20.9023 64.3266 21.8091 64.392C23.1642 64.4891 24.477 64.1561 25.7857 63.8537L38.5336 60.9084L38.5443 60.9122Z" fill="currentColor" stroke="currentColor"/>
<path d="M81.3546 40.5394C80.3068 38.3406 78.8984 36.3332 77.1876 34.6006C76.9665 34.3807 76.7295 34.1772 76.4785 33.9918C76.2468 33.8179 76.006 33.6563 75.7572 33.5077C75.5017 33.3675 75.2386 33.2411 74.9695 33.129C74.4373 32.9201 73.8669 32.8259 73.2961 32.8526C72.7499 32.8836 72.2169 33.0332 71.7342 33.2911C71.0024 33.6549 70.2106 34.2396 69.1575 35.2187C69.0119 35.3632 68.829 35.5262 68.6649 35.68C67.7959 36.497 66.8294 37.5041 65.6791 38.677C63.9022 40.4727 62.1521 42.2783 60.4129 44.1036L57.3013 47.3305C56.7316 47.9201 56.2126 48.5571 55.7503 49.2344C55.3565 49.8067 55.0775 50.4504 54.9297 51.1297C54.8443 51.6502 54.8568 52.1824 54.9668 52.6984C54.9721 52.7218 54.9773 52.7441 54.9826 52.7675C55.2287 53.8365 55.8792 54.7679 56.7981 55.3655C57.7167 55.9635 58.8314 56.1812 59.9079 55.9726C60.0784 55.948 60.2107 55.9185 60.2912 55.8989L76.8822 52.0656C78.1896 51.7632 79.5164 51.4865 80.6912 50.8046C81.479 50.3476 82.2285 49.8948 82.7426 48.9812C83.017 48.4792 83.1833 47.925 83.2306 47.355C83.485 45.0939 82.3045 42.5259 81.3546 40.5394Z" fill="currentColor" stroke="currentColor"/>
<path d="M51.6602 47.5164C52.8624 46.006 52.8595 43.7548 52.967 41.9144C53.3289 35.7651 53.7099 29.6149 54.0119 23.4622C54.1272 21.1318 54.3782 18.8329 54.2395 16.4847C54.1253 14.5475 54.1113 12.3234 52.8883 10.7337C50.7293 7.93032 46.1257 8.16072 42.9846 8.59557C42.0224 8.72913 41.0585 8.90871 40.1024 9.13825C39.1463 9.36779 38.1999 9.61848 37.274 9.915C34.26 10.9023 30.0227 12.7145 29.3052 16.1874C28.9007 18.1508 29.8592 20.1591 30.6028 21.9509C31.5041 24.1228 32.7352 26.0793 33.8572 28.1238C36.8237 33.5214 39.8451 38.8853 42.8581 44.2549C43.7578 45.8578 44.7386 47.888 46.4794 48.7185C46.5944 48.7687 46.7119 48.8133 46.8315 48.8515C47.6121 49.1471 48.463 49.2042 49.2763 49.0152C49.3254 49.0038 49.3734 48.9929 49.4213 48.9815C50.1723 48.7774 50.8523 48.3692 51.3858 47.8018C51.4822 47.7115 51.5737 47.6162 51.6602 47.5164Z" fill="currentColor" stroke="currentColor"/>
<path d="M50.2207 63.979C49.7514 63.319 49.0854 62.8242 48.318 62.5657C47.5506 62.3071 46.7209 62.2977 45.9477 62.5396C45.766 62.5997 45.589 62.6734 45.418 62.7592C45.1536 62.8938 44.9013 63.051 44.6639 63.2295C43.9725 63.7416 43.3902 64.4073 42.8601 65.0748C42.7256 65.2449 42.6028 65.4717 42.4429 65.6173L39.7742 69.2883C38.2616 71.3446 36.7699 73.4062 35.2907 75.5007C34.3256 76.8528 33.4907 77.9947 32.8313 79.0051C32.7063 79.1952 32.5765 79.4076 32.4578 79.577C31.6675 80.7998 31.2198 81.6923 30.9901 82.4872C30.8175 83.0156 30.7629 83.575 30.8301 84.1265C30.9036 84.7011 31.097 85.2533 31.3978 85.7481C31.5577 85.9961 31.7301 86.2361 31.9143 86.4667C32.1056 86.689 32.3089 86.9003 32.5231 87.1002C32.7519 87.3183 32.9966 87.5194 33.2552 87.7016C35.0971 88.983 37.1136 89.9038 39.2347 90.6152C40.9997 91.2011 42.8344 91.5519 44.6913 91.6581C45.0072 91.6743 45.3239 91.6672 45.6388 91.6377C45.9307 91.6124 46.2211 91.5715 46.5087 91.5156C46.7962 91.4487 47.0798 91.3659 47.3585 91.2688C47.9008 91.0658 48.3946 90.7517 48.808 90.3461C49.1993 89.9541 49.5004 89.4816 49.6905 88.9611C49.9989 88.1923 50.2018 87.2159 50.3352 85.7667C50.3469 85.5607 50.3763 85.3134 50.3968 85.0867C50.502 83.8842 50.5503 82.4717 50.6277 80.8108C50.7582 78.2563 50.8605 75.7131 50.9414 73.1628C50.9414 73.1628 51.1133 68.6306 51.1128 68.628C51.1521 67.5836 51.1199 66.4262 50.8302 65.3863C50.703 64.8877 50.4973 64.413 50.2207 63.979Z" fill="currentColor" stroke="currentColor"/>
<path d="M80.3434 71.0754C79.7863 70.4646 78.997 69.8556 77.7523 69.1027C77.5727 69.0025 77.3622 68.8687 77.1679 68.7523C76.1314 68.129 74.8829 67.4731 73.4246 66.6812C71.1842 65.4512 68.9423 64.2522 66.6793 63.0631L62.6808 60.9425C62.4737 60.8817 62.2632 60.732 62.0677 60.6378C61.2997 60.2704 60.4851 59.9276 59.6399 59.7704C59.3484 59.7144 59.0528 59.6838 58.7565 59.6785C58.5649 59.6762 58.374 59.6879 58.1842 59.7133C57.3848 59.8373 56.6446 60.2103 56.0693 60.78C55.494 61.3492 55.113 62.0856 54.9803 62.8843C54.9195 63.3923 54.938 63.9064 55.0355 64.4087C55.2309 65.4728 55.7061 66.5251 56.1975 67.4471L58.3328 71.4489C59.5208 73.7059 60.7232 75.9501 61.9562 78.187C62.7511 79.6461 63.413 80.895 64.0329 81.9299C64.1505 82.1246 64.2835 82.334 64.3841 82.5143C65.1386 83.7587 65.7449 84.5419 66.3595 85.1036C66.7575 85.488 67.2349 85.7806 67.7577 85.9613C68.3073 86.1435 68.8894 86.2081 69.4655 86.151C69.7588 86.1162 70.0499 86.066 70.3375 85.9998C70.621 85.9238 70.9003 85.8331 71.174 85.7277C71.47 85.6165 71.7573 85.4839 72.0336 85.3308C73.6571 84.4205 75.1532 83.3002 76.4841 81.9987C78.08 80.4282 79.4907 78.7158 80.588 76.7552C80.7407 76.4777 80.8726 76.1897 80.9834 75.8934C81.0869 75.6189 81.1765 75.3396 81.2517 75.0561C81.3164 74.7681 81.3663 74.4766 81.4007 74.1837C81.4555 73.6076 81.3886 73.027 81.2045 72.4786C81.0234 71.9535 80.7294 71.4742 80.3434 71.0754Z" fill="currentColor" stroke="currentColor"/>
</svg>
