<svg viewBox="0 0 100 100" xmlns="http://www.w3.org/2000/svg">
<path fill-rule="evenodd" clip-rule="evenodd" d="M82.4668 22.5615C86.0504 23.5242 88.8852 26.3591 89.848 29.9427C91.6131 36.4682 91.6666 50.0005 91.6666 50.0005C91.6666 50.0005 91.6666 63.5863 89.9015 70.0583C88.9387 73.6419 86.1039 76.4767 82.5203 77.4395C76.0483 79.2046 49.9999 79.2046 49.9999 79.2046C49.9999 79.2046 23.9516 79.2046 17.4796 77.4395C13.8959 76.4767 11.0611 73.6419 10.0983 70.0583C8.33325 63.5328 8.33325 50.0005 8.33325 50.0005C8.33325 50.0005 8.33325 36.4682 10.0448 29.9962C11.0076 26.4126 13.8425 23.5777 17.4261 22.615C23.8981 20.8499 49.9464 20.7964 49.9464 20.7964C49.9464 20.7964 75.9948 20.7964 82.4668 22.5615ZM63.2648 50.0005L41.6559 62.5165V37.4845L63.2648 50.0005Z" fill="currentColor" stroke="currentColor"/>
</svg>
