<svg width="32" height="32" viewBox="0 0 32 32" fill="none" xmlns="http://www.w3.org/2000/svg">
<path d="M16 29.3333C8.63616 29.3333 2.66663 23.3637 2.66663 16C2.66663 8.63619 8.63616 2.66666 16 2.66666C23.3637 2.66666 29.3333 8.63619 29.3333 16C29.3333 23.3637 23.3637 29.3333 16 29.3333ZM16 26.6667C21.891 26.6667 26.6666 21.8911 26.6666 16C26.6666 10.1089 21.891 5.33332 16 5.33332C10.1089 5.33332 5.33329 10.1089 5.33329 16C5.33329 21.8911 10.1089 26.6667 16 26.6667Z" fill="white"/>
<path d="M14.6666 18.1177L20.4444 12L21.3333 12.9412L14.6666 20L10.6666 15.7647L11.5555 14.8236L14.6666 18.1177Z" fill="white"/>
<path fill-rule="evenodd" clip-rule="evenodd" d="M10.6666 15.7647L11.5555 14.8236L14.6666 18.1177L20.4444 12L21.3333 12.9412L14.6666 20L10.6666 15.7647ZM14.6666 17.1467L20.4444 11.0291L22.2503 12.9412L14.6666 20.9709L9.74963 15.7647L11.5555 13.8526L14.6666 17.1467Z" fill="white"/>
</svg>
