<svg viewBox="0 0 24 24" fill="none" xmlns="http://www.w3.org/2000/svg">
<path fill-rule="evenodd" clip-rule="evenodd" d="M7 14.6161V4H17V20H7V16.4184H8.57895V18.023L13 15.0173L8.57895 13.0115V14.6161H7ZM5 14.3845V10.0339C3.50635 10.4202 2.47368 11.2491 2.47368 12.2092C2.47368 13.1694 3.50635 13.9982 5 14.3845ZM5 16.2593C2.37252 15.8155 0 14.4477 0 12.2092C0 9.9707 2.37252 8.60291 5 8.15913V3C5 2.44772 5.44772 2 6 2H18C18.5523 2 19 2.44772 19 3V8.15912C21.6275 8.6029 24 9.97069 24 12.2092C24 14.1588 22.2003 15.448 20 16.0414V14.0285C20.935 13.5872 21.5263 12.9358 21.5263 12.2092C21.5263 11.2491 20.4937 10.4202 19 10.0339V21C19 21.5523 18.5523 22 18 22H6C5.44772 22 5 21.5523 5 21V16.2593Z" fill="currentColor"/>
</svg>
