<svg xmlns="http://www.w3.org/2000/svg" width="26" height="29" viewBox="0 0 26 29" fill="none">
  <path d="M14.1668 18.0027V20.7886C13.3327 20.4938 12.4352 20.3334 11.5002 20.3334C7.08188 20.3334 3.50016 23.9151 3.50016 28.3334H0.833496C0.833496 22.4423 5.60912 17.6667 11.5002 17.6667C12.421 17.6667 13.3146 17.7834 14.1668 18.0027ZM11.5002 16.3334C7.08016 16.3334 3.50016 12.7534 3.50016 8.33338C3.50016 3.91337 7.08016 0.333374 11.5002 0.333374C15.9202 0.333374 19.5002 3.91337 19.5002 8.33338C19.5002 12.7534 15.9202 16.3334 11.5002 16.3334ZM11.5002 13.6667C14.4468 13.6667 16.8335 11.28 16.8335 8.33338C16.8335 5.38671 14.4468 3.00004 11.5002 3.00004C8.55349 3.00004 6.16683 5.38671 6.16683 8.33338C6.16683 11.28 8.55349 13.6667 11.5002 13.6667ZM20.2812 21.6667L17.8434 19.2288L19.729 17.3432L25.3858 23L19.729 28.6568L17.8434 26.7712L20.2812 24.3334H15.5002V21.6667H20.2812Z" fill="black"/>
</svg>