<svg width="18" height="18" viewBox="0 0 18 18" fill="none" xmlns="http://www.w3.org/2000/svg">
<path d="M4.41667 12.0001H1.5C1.08579 12.0001 0.75 11.6643 0.75 11.2501V6.75005C0.75 6.33583 1.08579 6.00005 1.5 6.00005H4.41667L8.38755 2.75116C8.54783 2.62001 8.78407 2.64364 8.91525 2.80393C8.97007 2.87092 9 2.95483 9 3.04139V14.9587C9 15.1658 8.83208 15.3337 8.625 15.3337C8.53845 15.3337 8.45452 15.3038 8.38755 15.2489L4.41667 12.0001ZM15.3106 9.00008L17.9623 11.6517L16.9016 12.7124L14.25 10.0607L11.5984 12.7124L10.5377 11.6517L13.1894 9.00008L10.5377 6.3484L11.5984 5.28774L14.25 7.93942L16.9016 5.28774L17.9623 6.3484L15.3106 9.00008Z" fill="white"/>
</svg>
