<svg width="18" height="18" viewBox="0 0 18 18" fill="none" xmlns="http://www.w3.org/2000/svg">
<path d="M1.5 12.0001H4.41667L8.38755 15.2489C8.45452 15.3038 8.53845 15.3337 8.625 15.3337C8.83208 15.3337 9 15.1658 9 14.9587V3.04139C9 2.95483 8.97007 2.87092 8.91525 2.80393C8.78407 2.64364 8.54783 2.62001 8.38755 2.75116L4.41667 6.00005H1.5C1.08579 6.00005 0.75 6.33583 0.75 6.75005V11.2501C0.75 11.6643 1.08579 12.0001 1.5 12.0001ZM17.25 9C17.25 11.469 16.1654 13.6847 14.4466 15.1966L13.3834 14.1333C14.8319 12.8953 15.75 11.0548 15.75 9C15.75 6.94512 14.8319 5.10472 13.3834 3.86668L14.4466 2.80334C16.1654 4.31526 17.25 6.53096 17.25 9ZM13.5 9C13.5 7.56623 12.8295 6.28911 11.785 5.46505L10.7132 6.53688C11.491 7.07891 12 7.98 12 9C12 10.02 11.491 10.9211 10.7132 11.4631L11.785 12.5349C12.8295 11.7109 13.5 10.4337 13.5 9Z" fill="white"/>
</svg>
