<svg
  xmlns="http://www.w3.org/2000/svg"
  width="33"
  height="32"
  viewBox="0 0 33 32"
  fill="none"
>
  <path
    d="M16.4998 29.3334C9.13604 29.3334 3.1665 23.3638 3.1665 16.0001C3.1665 8.63628 9.13604 2.66675 16.4998 2.66675C23.8636 2.66675 29.8332 8.63628 29.8332 16.0001C29.8332 23.3638 23.8636 29.3334 16.4998 29.3334ZM16.4998 26.6667C22.3909 26.6667 27.1665 21.8911 27.1665 16.0001C27.1665 10.109 22.3909 5.33341 16.4998 5.33341C10.6088 5.33341 5.83317 10.109 5.83317 16.0001C5.83317 21.8911 10.6088 26.6667 16.4998 26.6667Z"
    fill="white"
  />
  <path
    d="M15.1665 18.1177L20.9443 12L21.8332 12.9412L15.1665 20L11.1665 15.7647L12.0554 14.8236L15.1665 18.1177Z"
    fill="white"
  />
  <path
    fillRule="evenodd"
    clipRule="evenodd"
    d="M11.1665 15.7647L12.0554 14.8236L15.1665 18.1177L20.9443 12L21.8332 12.9412L15.1665 20L11.1665 15.7647ZM15.1665 17.1467L20.9443 11.0291L22.7502 12.9412L15.1665 20.9709L10.2495 15.7647L12.0554 13.8526L15.1665 17.1467Z"
    fill="white"
  />
</svg>