<svg width="124" height="36" viewBox="0 0 124 36" fill="none" xmlns="http://www.w3.org/2000/svg">
<g id="appstore" clip-path="url(#clip0_1244_10704)">
<g id="Clip path group">
<mask id="mask0_1244_10704" style="mask-type:luminance" maskUnits="userSpaceOnUse" x="0" y="0" width="124" height="36">
<g id="clip0">
<path id="Vector" d="M123.983 0H0V36H123.983V0Z" fill="white"/>
</g>
</mask>
<g mask="url(#mask0_1244_10704)">
<g id="Group">
<path id="Vector_2" d="M7.01731 35.5056C6.46688 35.5056 5.73298 35.4157 5.13669 35.3708C4.58627 35.2809 4.08172 35.1012 3.57716 34.8764C3.0726 34.6517 2.65979 34.3821 2.24698 34.0224C1.83416 33.7079 1.51308 33.3033 1.28373 32.854C1.05439 32.4045 0.870915 31.955 0.779177 31.4607C0.68744 30.9214 0.641572 30.3371 0.595703 29.7977V6.2472C0.595703 5.66293 0.641572 5.1236 0.779177 4.58428C0.870915 4.08989 1.05439 3.59551 1.28373 3.14607C1.51308 2.69663 1.83416 2.29214 2.24698 1.97753C2.61392 1.61798 3.0726 1.34832 3.53129 1.1236C4.08172 0.89888 4.58627 0.719104 5.13669 0.629216C5.73298 0.539329 6.37515 0.494385 7.01731 0.494385H117.01C117.652 0.494385 118.294 0.539329 118.89 0.629216C119.442 0.719104 120.038 0.853936 120.542 1.1236C121.459 1.57304 122.239 2.29214 122.79 3.19101C123.019 3.59551 123.203 4.08989 123.294 4.53933C123.386 5.07866 123.432 5.66293 123.432 6.20225V29.7078C123.432 30.2921 123.386 30.8315 123.249 31.3708C123.157 31.8651 122.973 32.3596 122.744 32.809C122.515 33.2584 122.193 33.6629 121.826 33.9775C121.46 34.3371 121.001 34.6067 120.542 34.8314C119.992 35.0562 119.442 35.236 118.89 35.3258C118.248 35.4157 117.652 35.4607 117.01 35.4607L7.01731 35.5056Z" fill="black"/>
<path id="Vector_3" d="M117.011 0.988767C117.608 0.988767 118.25 1.0337 118.846 1.1236C119.35 1.21348 119.854 1.34832 120.359 1.52809C121.185 1.93259 121.919 2.5618 122.377 3.37079C122.561 3.73034 122.745 4.13483 122.836 4.58427C122.928 5.12359 122.974 5.61798 122.974 6.15731V29.7078C122.974 30.2472 122.882 30.7865 122.836 31.2809C122.745 31.7303 122.561 32.1798 122.332 32.5842C122.148 32.9438 121.873 33.3033 121.506 33.5731C121.185 33.8876 120.772 34.1573 120.359 34.382C119.854 34.6067 119.35 34.7415 118.8 34.8314C118.204 34.9214 117.608 34.9663 116.965 34.9663H7.01799C6.51342 34.9663 5.77953 34.8764 5.18324 34.8314C4.67868 34.7415 4.17413 34.6067 3.71544 34.382C3.30262 34.2023 2.88981 33.9326 2.56873 33.5731C2.24765 33.3033 1.97244 32.9438 1.7431 32.5842C1.51375 32.1798 1.37615 31.7753 1.23854 31.3259C1.14681 30.7865 1.10094 30.2472 1.10094 29.7078V6.24719C1.10094 5.70786 1.14681 5.16854 1.23854 4.67416C1.33028 4.22472 1.51375 3.73034 1.69723 3.32584C1.8807 2.96629 2.15591 2.65169 2.52286 2.38202C2.84394 2.06742 3.25676 1.79775 3.66957 1.57304C4.12826 1.39325 4.63281 1.21348 5.13737 1.1236C5.73367 1.0337 6.37582 0.988767 6.97212 0.988767H117.011ZM117.011 0H7.01799C6.37582 0 5.73367 0.0449438 5.04563 0.134832C4.49521 0.269662 3.89892 0.404494 3.39437 0.674158C2.84394 0.853933 2.33938 1.16854 1.8807 1.57304C1.46788 1.93259 1.10094 2.38202 0.825724 2.92135C0.550512 3.41573 0.367038 3.95506 0.2753 4.49438C0.183563 5.07866 0.137695 5.66292 0.137695 6.24719V29.7528C0.137695 30.3371 0.183563 30.9214 0.321169 31.5056C0.458775 32.0449 0.642249 32.5393 0.871593 33.0337C1.14681 33.5281 1.51375 33.9775 1.92657 34.3371C2.33938 34.7415 2.84394 35.0562 3.3485 35.2809C3.89892 35.5056 4.44934 35.6854 5.04563 35.7753C5.6878 35.8652 6.32995 35.9101 7.01799 35.9101H117.011C117.653 35.9101 118.296 35.8652 118.984 35.7753C119.58 35.6854 120.222 35.5056 120.772 35.2809C121.322 35.0562 121.827 34.7415 122.24 34.3371C122.653 33.9775 123.019 33.5281 123.295 33.0337C123.57 32.5393 123.753 32 123.845 31.4607C123.937 30.8764 123.983 30.2921 124.029 29.7078V6.20225C124.029 5.61798 123.983 5.03371 123.845 4.44944C123.753 3.91011 123.524 3.41573 123.295 2.92135C122.699 1.93259 121.781 1.16854 120.726 0.674158C120.176 0.449438 119.534 0.269663 118.938 0.179775C118.296 0.0449438 117.653 0 117.011 0Z" fill="#9B9B9B"/>
<path id="Vector_4" d="M31.0067 17.4832C31.0525 15.7305 31.9699 14.1574 33.4836 13.2585C32.5203 11.9552 30.9608 11.1912 29.3096 11.1462C27.5665 10.9664 25.8693 12.1799 24.9979 12.1799C24.1264 12.1799 22.7503 11.1462 21.2367 11.2361C19.3102 11.326 17.5671 12.3596 16.604 13.9776C14.5857 17.3484 16.0993 22.3821 18.0258 25.1237C18.9891 26.472 20.0899 27.9552 21.5577 27.9552C23.0255 27.9552 23.576 27.1013 25.2272 27.1013C26.8785 27.1013 27.4748 27.9552 28.9885 27.9552C30.5021 27.9552 31.4653 26.6069 32.4286 25.2136C33.1166 24.2249 33.667 23.1911 34.034 22.0676C32.2452 21.2136 31.0067 19.4608 31.0067 17.4832Z" fill="white"/>
<path id="Vector_5" d="M28.1167 9.34836C28.9882 8.35959 29.4011 7.10116 29.2176 5.79779C27.9333 5.93262 26.7407 6.51689 25.8692 7.46071C24.9977 8.40453 24.5849 9.66291 24.6766 10.9214C26.0068 10.9214 27.2911 10.3371 28.1167 9.34836Z" fill="white"/>
<path id="Vector_6" d="M52.0153 24.809H48.1165L47.1532 27.5056H45.5479L49.2173 17.4832H50.8686L54.538 27.5056H52.9326L52.0153 24.809ZM48.5293 23.5505H51.6484L50.1347 19.146H50.0888L48.5293 23.5505Z" fill="white"/>
<path id="Vector_7" d="M62.6102 23.8651C62.6102 26.1124 61.3259 27.5955 59.4911 27.5955C58.5279 27.6854 57.5646 27.1461 57.1518 26.2922H57.106V29.8877H55.5923V20.1797H57.0601V21.4382C57.5646 20.6292 58.4361 20.1348 59.3994 20.1348C61.3717 20.1348 62.6102 21.573 62.6102 23.8651ZM61.0047 23.8651C61.0047 22.382 60.1792 21.4382 59.0324 21.4382C57.8857 21.4382 57.0601 22.4269 57.0601 23.8651C57.0601 25.3033 57.8857 26.2922 59.0324 26.2922C60.225 26.2922 61.0507 25.3483 61.0047 23.8651Z" fill="white"/>
<path id="Vector_8" d="M70.8215 23.8651C70.8215 26.1124 69.5372 27.5955 67.7025 27.5955C66.7392 27.6405 65.776 27.1461 65.3632 26.2922H65.3173V29.8877H63.7578V20.1797H65.2256V21.4382C65.7301 20.6292 66.6016 20.1348 67.5649 20.1348C69.5831 20.1348 70.8215 21.573 70.8215 23.8651ZM69.2161 23.8651C69.2161 22.382 68.4364 21.4382 67.2438 21.4382C66.0512 21.4382 65.2714 22.4269 65.2714 23.8651C65.2714 25.3033 66.0971 26.2922 67.2438 26.2922C68.4364 26.2922 69.2161 25.3483 69.2161 23.8651Z" fill="white"/>
<path id="Vector_9" d="M76.2338 24.7192C76.3715 25.7079 77.3346 26.2922 78.6648 26.2922C79.995 26.2922 80.8665 25.663 80.8665 24.7192C80.8665 23.9551 80.3162 23.4607 78.9401 23.146L77.6099 22.8764C75.6834 22.4269 74.8578 21.573 74.8578 20.1798C74.8578 18.427 76.3714 17.2584 78.619 17.2584C80.8207 17.2584 82.2427 18.427 82.2885 20.1798H80.7749C80.7289 19.191 79.8116 18.5618 78.619 18.5618C77.4264 18.5618 76.5091 19.191 76.5091 20.045C76.5091 20.7191 77.0136 21.1686 78.3438 21.4832L79.4905 21.7078C81.6004 22.2023 82.472 23.0112 82.472 24.4944C82.472 26.3821 80.9583 27.5506 78.5273 27.5506C76.2338 27.5506 74.7202 26.427 74.6284 24.5393L76.2338 24.7192Z" fill="white"/>
<path id="Vector_10" d="M85.8201 18.4269V20.1798H87.242V21.3483H85.8201V25.3933C85.8201 26.0225 86.0953 26.337 86.6916 26.337C86.8751 26.337 87.0585 26.337 87.1961 26.2921V27.4607C86.9209 27.5056 86.6457 27.5506 86.3704 27.5056C84.8568 27.5056 84.2605 26.9663 84.2605 25.5281V21.3483H83.1597V20.1798H84.2605V18.4269H85.8201Z" fill="white"/>
<path id="Vector_11" d="M88.0679 23.8651C88.0679 21.573 89.4897 20.1348 91.6456 20.1348C93.8014 20.1348 95.1773 21.573 95.1773 23.8651C95.1773 26.1573 93.8014 27.6405 91.6456 27.6405C89.4439 27.6405 88.0679 26.1573 88.0679 23.8651ZM93.5717 23.8651C93.5717 22.2921 92.7919 21.3483 91.5997 21.3483C90.4072 21.3483 89.5815 22.2921 89.5815 23.8651C89.5815 25.4382 90.3612 26.3371 91.5538 26.3371C92.746 26.3371 93.5717 25.4382 93.5717 23.8651Z" fill="white"/>
<path id="Vector_12" d="M96.3696 20.1798H97.8374V21.4382H97.8833C98.0671 20.6293 98.8009 20.0899 99.6717 20.1348C99.8554 20.1348 100.039 20.1348 100.177 20.1798V21.618C99.9473 21.5281 99.7176 21.5281 99.4889 21.573C98.6632 21.5281 97.9293 22.1124 97.8833 22.9214V22.9663V27.5955H96.3696V20.1798Z" fill="white"/>
<path id="Vector_13" d="M107.241 25.3483C107.058 26.6516 105.728 27.5955 104.03 27.5955C101.874 27.5955 100.544 26.1573 100.544 23.8652C100.544 21.573 101.874 20.0449 103.984 20.0449C106.094 20.0449 107.379 21.4382 107.379 23.6853V24.1798H102.104V24.2696C102.012 25.3034 102.792 26.2472 103.847 26.3371H104.122C104.856 26.382 105.544 25.9775 105.819 25.3034L107.241 25.3483ZM102.104 23.191H105.865C105.911 22.2022 105.177 21.3932 104.168 21.3483H104.122H103.984C102.93 21.3483 102.104 22.1573 102.058 23.1461C102.104 23.1461 102.104 23.191 102.104 23.191Z" fill="white"/>
<path id="Vector_14" d="M46.0688 8.42401H47.8839C48.7216 8.42401 49.3706 8.64481 49.8312 9.08642C50.2916 9.52805 50.5219 10.152 50.5219 10.9584C50.5219 11.7648 50.2916 12.3912 49.8312 12.8376C49.3706 13.2793 48.7216 13.5 47.8839 13.5H46.0688V8.42401ZM47.8398 12.8808C49.1135 12.8808 49.7503 12.24 49.7503 10.9584C49.7503 9.68159 49.1135 9.04322 47.8398 9.04322H46.8258V12.8808H47.8398Z" fill="white"/>
<path id="Vector_15" d="M53.3583 13.5504C53.0056 13.5504 52.6945 13.476 52.4251 13.3272C52.1605 13.1785 51.9548 12.9672 51.8078 12.6936C51.6657 12.4153 51.5947 12.0936 51.5947 11.7288C51.5947 11.3592 51.6657 11.0376 51.8078 10.764C51.9548 10.4857 52.1605 10.272 52.4251 10.1232C52.6945 9.97445 53.0056 9.90002 53.3583 9.90002C53.711 9.90002 54.0196 9.97445 54.2841 10.1232C54.5535 10.272 54.7593 10.4857 54.9014 10.764C55.0484 11.0376 55.1218 11.3592 55.1218 11.7288C55.1218 12.0936 55.0484 12.4153 54.9014 12.6936C54.7593 12.9672 54.5535 13.1785 54.2841 13.3272C54.0196 13.476 53.711 13.5504 53.3583 13.5504ZM53.3583 12.9744C53.6865 12.9744 53.9363 12.8689 54.1078 12.6576C54.2841 12.4464 54.3723 12.1368 54.3723 11.7288C54.3723 11.3256 54.2841 11.0185 54.1078 10.8072C53.9314 10.5912 53.6816 10.4832 53.3583 10.4832C53.035 10.4832 52.7851 10.5912 52.6088 10.8072C52.4324 11.0185 52.3442 11.3256 52.3442 11.7288C52.3442 12.1368 52.4299 12.4464 52.6014 12.6576C52.7778 12.8689 53.03 12.9744 53.3583 12.9744Z" fill="white"/>
<path id="Vector_16" d="M61.0928 9.98639H61.8276L60.4535 13.5H59.7848L58.8369 10.9872L57.889 13.5H57.2129L55.8462 9.98639H56.6177L57.5877 12.6288L58.565 9.98639H59.1455L60.1228 12.6432L61.0928 9.98639Z" fill="white"/>
<path id="Vector_17" d="M64.7343 9.90002C65.5917 9.90002 66.0202 10.3728 66.0202 11.3184V13.5H65.2781V11.3544C65.2781 11.0568 65.2169 10.8385 65.0944 10.6992C64.9768 10.56 64.7907 10.4904 64.5359 10.4904C64.2371 10.4904 63.9971 10.5816 63.8158 10.764C63.6346 10.9465 63.5439 11.1913 63.5439 11.4984V13.5H62.8018V9.98642H63.5292V10.548C63.6468 10.3368 63.8109 10.1761 64.0216 10.0656C64.2323 9.95519 64.4698 9.90002 64.7343 9.90002Z" fill="white"/>
<path id="Vector_18" d="M67.373 13.5V8.42401H68.1152V13.5H67.373Z" fill="white"/>
<path id="Vector_19" d="M71.0477 13.5504C70.695 13.5504 70.384 13.476 70.1145 13.3272C69.85 13.1785 69.6442 12.9672 69.4973 12.6936C69.3553 12.4153 69.2842 12.0936 69.2842 11.7288C69.2842 11.3592 69.3553 11.0376 69.4973 10.764C69.6442 10.4857 69.85 10.272 70.1145 10.1232C70.384 9.97445 70.695 9.90002 71.0477 9.90002C71.4004 9.90002 71.7091 9.97445 71.9736 10.1232C72.2431 10.272 72.4488 10.4857 72.5908 10.764C72.7378 11.0376 72.8113 11.3592 72.8113 11.7288C72.8113 12.0936 72.7378 12.4153 72.5908 12.6936C72.4488 12.9672 72.2431 13.1785 71.9736 13.3272C71.7091 13.476 71.4004 13.5504 71.0477 13.5504ZM71.0477 12.9744C71.376 12.9744 71.6259 12.8689 71.7972 12.6576C71.9736 12.4464 72.0618 12.1368 72.0618 11.7288C72.0618 11.3256 71.9736 11.0185 71.7972 10.8072C71.6209 10.5912 71.3711 10.4832 71.0477 10.4832C70.7244 10.4832 70.4746 10.5912 70.2982 10.8072C70.1219 11.0185 70.0337 11.3256 70.0337 11.7288C70.0337 12.1368 70.1195 12.4464 70.2909 12.6576C70.4672 12.8689 70.7195 12.9744 71.0477 12.9744Z" fill="white"/>
<path id="Vector_20" d="M75.474 9.90002C75.9541 9.90002 76.3092 10.0177 76.5395 10.2528C76.7747 10.488 76.8922 10.8457 76.8922 11.3256V13.5H76.1795V12.9168C76.0864 13.1232 75.9468 13.2816 75.7606 13.392C75.5794 13.4976 75.3663 13.5504 75.1213 13.5504C74.8862 13.5504 74.6706 13.5048 74.4747 13.4136C74.2788 13.3176 74.1245 13.1857 74.0118 13.0176C73.904 12.8496 73.8501 12.6624 73.8501 12.456C73.8501 12.2016 73.9162 12.0024 74.0485 11.8584C74.1856 11.7097 74.4086 11.604 74.7172 11.5416C75.0307 11.4793 75.4593 11.448 76.0031 11.448H76.1721V11.2392C76.1721 10.9704 76.1133 10.776 75.9958 10.656C75.8831 10.5361 75.697 10.476 75.4373 10.476C75.0307 10.476 74.6241 10.5984 74.2175 10.8432L73.9971 10.332C74.1881 10.2024 74.4184 10.0992 74.6878 10.0224C74.9621 9.94079 75.2242 9.90002 75.474 9.90002ZM75.2536 13.0104C75.523 13.0104 75.7434 12.9216 75.9149 12.744C76.0864 12.5616 76.1721 12.3289 76.1721 12.0456V11.8584H76.0398C75.6577 11.8584 75.3638 11.8753 75.1581 11.9088C74.9523 11.9424 74.8054 12 74.7172 12.0816C74.629 12.1584 74.5849 12.2713 74.5849 12.42C74.5849 12.5881 74.6462 12.7296 74.7686 12.8448C74.896 12.9553 75.0577 13.0104 75.2536 13.0104Z" fill="white"/>
<path id="Vector_21" d="M81.5515 8.42401V13.5H80.8167V12.8952C80.7089 13.1065 80.5521 13.2696 80.3464 13.3848C80.1406 13.4952 79.903 13.5504 79.6336 13.5504C79.325 13.5504 79.0482 13.4736 78.8033 13.32C78.5633 13.1664 78.3746 12.9504 78.2375 12.672C78.1052 12.3937 78.0391 12.0744 78.0391 11.7144C78.0391 11.3496 78.1052 11.0304 78.2375 10.7568C78.3746 10.4832 78.5633 10.272 78.8033 10.1232C79.0433 9.97445 79.3201 9.90002 79.6336 9.90002C79.903 9.90002 80.1382 9.95762 80.339 10.0728C80.5448 10.1833 80.7016 10.3417 80.8093 10.548V8.42401H81.5515ZM79.81 12.9744C80.1333 12.9744 80.3806 12.8664 80.5521 12.6504C80.7285 12.4344 80.8167 12.1272 80.8167 11.7288C80.8167 11.3304 80.7285 11.0232 80.5521 10.8072C80.3806 10.5912 80.1333 10.4832 79.81 10.4832C79.4866 10.4832 79.2343 10.5912 79.0531 10.8072C78.8767 11.0185 78.7886 11.3208 78.7886 11.7144C78.7886 12.108 78.8792 12.4176 79.0605 12.6432C79.2417 12.864 79.4915 12.9744 79.81 12.9744Z" fill="white"/>
<path id="Vector_22" d="M86.7567 13.5504C86.404 13.5504 86.0929 13.476 85.8235 13.3272C85.559 13.1785 85.3532 12.9672 85.2063 12.6936C85.0642 12.4153 84.9932 12.0936 84.9932 11.7288C84.9932 11.3592 85.0642 11.0376 85.2063 10.764C85.3532 10.4857 85.559 10.272 85.8235 10.1232C86.0929 9.97445 86.404 9.90002 86.7567 9.90002C87.1094 9.90002 87.4181 9.97445 87.6826 10.1232C87.952 10.272 88.1577 10.4857 88.2998 10.764C88.4468 11.0376 88.5203 11.3592 88.5203 11.7288C88.5203 12.0936 88.4468 12.4153 88.2998 12.6936C88.1577 12.9672 87.952 13.1785 87.6826 13.3272C87.4181 13.476 87.1094 13.5504 86.7567 13.5504ZM86.7567 12.9744C87.0849 12.9744 87.3347 12.8689 87.5062 12.6576C87.6826 12.4464 87.7708 12.1368 87.7708 11.7288C87.7708 11.3256 87.6826 11.0185 87.5062 10.8072C87.3299 10.5912 87.08 10.4832 86.7567 10.4832C86.4334 10.4832 86.1836 10.5912 86.0072 10.8072C85.8309 11.0185 85.7427 11.3256 85.7427 11.7288C85.7427 12.1368 85.8284 12.4464 85.9999 12.6576C86.1762 12.8689 86.4284 12.9744 86.7567 12.9744Z" fill="white"/>
<path id="Vector_23" d="M91.6162 9.90002C92.4731 9.90002 92.9021 10.3728 92.9021 11.3184V13.5H92.1599V11.3544C92.1599 11.0568 92.0984 10.8385 91.9762 10.6992C91.8586 10.56 91.6726 10.4904 91.4178 10.4904C91.119 10.4904 90.879 10.5816 90.6976 10.764C90.5164 10.9465 90.4258 11.1913 90.4258 11.4984V13.5H89.6836V9.98642H90.4111V10.548C90.5286 10.3368 90.6928 10.1761 90.9034 10.0656C91.1141 9.95519 91.3516 9.90002 91.6162 9.90002Z" fill="white"/>
<path id="Vector_24" d="M98.2268 12.9888C98.3398 12.9888 98.45 12.9816 98.5575 12.9672L98.5207 13.5216C98.3985 13.5408 98.2709 13.5504 98.1386 13.5504C97.6738 13.5504 97.3257 13.44 97.0952 13.2192C96.8701 12.9936 96.7572 12.6696 96.7572 12.2472V10.548H96.0591V9.98639H96.7572V8.92798H97.4993V9.98639H98.484V10.548H97.4993V12.2184C97.4993 12.732 97.7418 12.9888 98.2268 12.9888Z" fill="white"/>
<path id="Vector_25" d="M101.39 9.90002C102.247 9.90002 102.676 10.3728 102.676 11.3184V13.5H101.934V11.3544C101.934 11.0568 101.872 10.8384 101.75 10.6992C101.633 10.56 101.446 10.4904 101.192 10.4904C100.893 10.4904 100.653 10.5816 100.472 10.764C100.291 10.9464 100.2 11.1913 100.2 11.4984V13.5H99.4575V8.42401H100.2V10.5192C100.322 10.3176 100.486 10.164 100.692 10.0584C100.898 9.95285 101.13 9.90002 101.39 9.90002Z" fill="white"/>
<path id="Vector_26" d="M107.101 11.8656H104.565C104.62 12.6097 104.996 12.9816 105.697 12.9816C106.109 12.9816 106.481 12.8496 106.814 12.5856L107.042 13.0968C106.875 13.2361 106.67 13.3464 106.424 13.428C106.179 13.5097 105.929 13.5504 105.675 13.5504C105.102 13.5504 104.649 13.3896 104.316 13.068C103.988 12.7465 103.823 12.3024 103.823 11.736C103.823 11.376 103.894 11.0568 104.036 10.7784C104.183 10.5001 104.386 10.2841 104.646 10.1304C104.911 9.97679 105.209 9.90002 105.543 9.90002C106.028 9.90002 106.407 10.0537 106.682 10.3608C106.961 10.668 107.101 11.0928 107.101 11.6352V11.8656ZM105.557 10.4328C105.274 10.4328 105.046 10.5217 104.874 10.6992C104.708 10.872 104.607 11.1216 104.573 11.448H106.461C106.447 11.1216 106.361 10.872 106.204 10.6992C106.052 10.5217 105.837 10.4328 105.557 10.4328Z" fill="white"/>
</g>
</g>
</g>
</g>
<defs>
<clipPath id="clip0_1244_10704">
<rect width="124" height="36" fill="white"/>
</clipPath>
</defs>
</svg>
