<svg width="112" height="23" viewBox="0 0 112 23" fill="none" xmlns="http://www.w3.org/2000/svg">
<path d="M11.5702 20.7C11.9879 20.7 12.3991 20.6725 12.8021 20.6192C14.1236 20.4446 15.5388 20.8862 16.2083 22.0388C14.7884 22.657 13.2196 23 11.5702 23C5.18018 23 0 17.8513 0 11.5C0 5.14873 5.18018 0 11.5702 0C17.9603 0 23.1405 5.14873 23.1405 11.5C23.1405 15.3895 21.1978 18.828 18.2242 20.9092L11.6466 9.59011L9.87533 12.6395C9.04448 14.0698 7.51531 14.95 5.86117 14.95L11.6466 4.99011L18.7799 17.2703C20.0601 15.6921 20.8264 13.685 20.8264 11.5C20.8264 6.41898 16.6823 2.3 11.5702 2.3C6.45819 2.3 2.31405 6.41898 2.31405 11.5C2.31405 16.581 6.45819 20.7 11.5702 20.7Z" fill="black"/>
<path fill-rule="evenodd" clip-rule="evenodd" d="M85.0547 20.4787C85.3699 20.3135 85.5667 19.9916 85.5667 19.6412V15.9699C86.7912 17.2242 88.5301 18.0051 90.4403 18.0051C94.1629 18.0051 97.1507 15.0943 97.1507 11.5208C97.1507 7.94726 94.1629 5.06006 90.4403 5.06006C86.7423 5.06006 83.7544 7.94726 83.7544 11.5208V21.1601L85.0547 20.4787ZM85.5667 11.5208C85.5667 8.91755 87.7464 6.81132 90.4403 6.81132C93.1588 6.81132 95.3384 8.91755 95.3384 11.5208C95.3384 14.124 93.1588 16.2539 90.4403 16.2539C87.7464 16.2539 85.5667 14.124 85.5667 11.5208Z" fill="black"/>
<path fill-rule="evenodd" clip-rule="evenodd" d="M35.4047 5.06034C39.1028 5.06034 42.0907 7.94754 42.0907 11.521V17.8871L40.7904 17.2057C40.4752 17.0406 40.2784 16.7186 40.2784 16.3682V15.9702C39.0538 17.2245 37.315 18.0054 35.4047 18.0054C31.7067 18.0054 28.6943 15.0946 28.6943 11.521C28.6943 7.94754 31.7067 5.06034 35.4047 5.06034ZM30.5066 11.521C30.5066 14.1243 32.7108 16.2542 35.4047 16.2542C38.0987 16.2542 40.2784 14.1243 40.2784 11.521C40.2784 8.91783 38.0987 6.81159 35.4047 6.81159C32.7108 6.81159 30.5066 8.91783 30.5066 11.521Z" fill="black"/>
<path d="M55.7418 5.17804H43.7094L44.4032 6.43233C44.5726 6.73857 44.8994 6.9293 45.2548 6.9293H52.3165L43.7094 17.8865H55.7418L55.048 16.6322C54.8786 16.3259 54.5518 16.1352 54.1965 16.1352H47.2741L55.7418 5.17804Z" fill="black"/>
<path d="M57.2714 5.17804H69.3038L60.8361 16.1352H67.7585C68.1138 16.1352 68.4406 16.3259 68.61 16.6322L69.3038 17.8865H57.2714L65.8785 6.9293H58.8168C58.4614 6.9293 58.1346 6.73857 57.9652 6.43233L57.2714 5.17804Z" fill="black"/>
<path fill-rule="evenodd" clip-rule="evenodd" d="M75.6154 5.06034C79.3135 5.06034 82.3013 7.94754 82.3013 11.521V17.8871L81.0011 17.2057C80.6859 17.0406 80.4891 16.7186 80.4891 16.3682V15.9702C79.2645 17.2245 77.5257 18.0054 75.6154 18.0054C71.9174 18.0054 68.905 15.0946 68.905 11.521C68.905 7.94754 71.9174 5.06034 75.6154 5.06034ZM70.7173 11.521C70.7173 14.1243 72.9215 16.2542 75.6154 16.2542C78.3094 16.2542 80.4891 14.1243 80.4891 11.521C80.4891 8.91783 78.3094 6.81159 75.6154 6.81159C72.9215 6.81159 70.7173 8.91783 70.7173 11.521Z" fill="black"/>
<path fill-rule="evenodd" clip-rule="evenodd" d="M100.416 19.6412C100.416 19.9916 100.219 20.3135 99.9041 20.4787L98.6038 21.1601V11.5208C98.6038 7.94726 101.592 5.06006 105.29 5.06006C109.012 5.06006 112 7.94726 112 11.5208C112 15.0943 109.012 18.0051 105.29 18.0051C103.379 18.0051 101.641 17.2242 100.416 15.9699V19.6412ZM105.29 6.81132C102.596 6.81132 100.416 8.91755 100.416 11.5208C100.416 14.124 102.596 16.2539 105.29 16.2539C108.008 16.2539 110.188 14.124 110.188 11.5208C110.188 8.91755 108.008 6.81132 105.29 6.81132Z" fill="black"/>
</svg>
