<svg width="124" height="36" viewBox="0 0 124 36" fill="none" xmlns="http://www.w3.org/2000/svg">
<g id="googleplay" clip-path="url(#clip0_1244_10734)">
<g id="Clip path group">
<mask id="mask0_1244_10734" style="mask-type:luminance" maskUnits="userSpaceOnUse" x="0" y="0" width="124" height="36">
<g id="clip0">
<path id="Vector" d="M124 0H0V36H124V0Z" fill="white"/>
</g>
</mask>
<g mask="url(#mask0_1244_10734)">
<g id="Group">
<path id="Vector_2" d="M119.407 36H4.59259C2.02074 36 0 34.02 0 31.5V4.5C0 1.98 2.02074 0 4.59259 0H119.407C121.979 0 124 1.98 124 4.5V31.5C124 34.02 121.979 36 119.407 36Z" fill="black"/>
<path id="Vector_3" d="M119.407 0.72C121.52 0.72 123.265 2.43 123.265 4.5V31.5C123.265 33.57 121.52 35.28 119.407 35.28H4.59259C2.48 35.28 0.734815 33.57 0.734815 31.5V4.5C0.734815 2.43 2.48 0.72 4.59259 0.72H119.407ZM119.407 0H4.59259C2.02074 0 0 2.07 0 4.5V31.5C0 34.02 2.02074 36 4.59259 36H119.407C121.979 36 124 34.02 124 31.5V4.5C124 2.07 121.979 0 119.407 0Z" fill="#A6A6A6"/>
<path id="Vector_4" d="M43.5385 9.18C43.5385 9.9 43.3548 10.53 42.8955 10.98C42.3444 11.52 41.7014 11.79 40.8748 11.79C40.0481 11.79 39.4051 11.52 38.854 10.98C38.3029 10.44 38.0273 9.81 38.0273 9C38.0273 8.19002 38.3029 7.56002 38.854 7.02002C39.4051 6.48002 40.0481 6.21002 40.8748 6.21002C41.2422 6.21002 41.6096 6.30002 41.977 6.48002C42.3444 6.66002 42.6199 6.84002 42.8036 7.11002L42.3444 7.56002C41.977 7.11002 41.5177 6.93002 40.8748 6.93002C40.3236 6.93002 39.7725 7.11002 39.4051 7.56002C38.9459 7.92002 38.7622 8.46002 38.7622 9.09C38.7622 9.72 38.9459 10.26 39.4051 10.62C39.8644 10.98 40.3236 11.25 40.8748 11.25C41.5177 11.25 41.977 11.07 42.4362 10.62C42.7118 10.35 42.8955 9.99 42.8955 9.54H40.8748V8.82002H43.5385C43.5385 8.91002 43.5385 9.09 43.5385 9.18Z" fill="white" stroke="white" stroke-width="0.2" stroke-miterlimit="10"/>
<path id="Vector_5" d="M47.7632 6.92999H45.2832V8.63999H47.5795V9.26999H45.2832V10.98H47.7632V11.7H44.5483V6.29999H47.7632V6.92999Z" fill="white" stroke="white" stroke-width="0.2" stroke-miterlimit="10"/>
<path id="Vector_6" d="M50.7948 11.7H50.06V6.92999H48.4985V6.29999H52.3563V6.92999H50.7948V11.7Z" fill="white" stroke="white" stroke-width="0.2" stroke-miterlimit="10"/>
<path id="Vector_7" d="M55.0195 11.7V6.29999H55.7543V11.7H55.0195Z" fill="white" stroke="white" stroke-width="0.2" stroke-miterlimit="10"/>
<path id="Vector_8" d="M58.8774 11.7H58.1425V6.92999H56.5811V6.29999H60.347V6.92999H58.7855V11.7H58.8774Z" fill="white" stroke="white" stroke-width="0.2" stroke-miterlimit="10"/>
<path id="Vector_9" d="M67.6035 10.98C67.0524 11.52 66.4094 11.79 65.5828 11.79C64.7561 11.79 64.1131 11.52 63.562 10.98C63.0109 10.44 62.7354 9.81 62.7354 9C62.7354 8.19002 63.0109 7.56002 63.562 7.02002C64.1131 6.48002 64.7561 6.21002 65.5828 6.21002C66.4094 6.21002 67.0524 6.48002 67.6035 7.02002C68.1546 7.56002 68.4302 8.19002 68.4302 9C68.4302 9.81 68.1546 10.44 67.6035 10.98ZM64.1131 10.53C64.4805 10.89 65.0317 11.16 65.5828 11.16C66.1339 11.16 66.685 10.98 67.0524 10.53C67.4198 10.17 67.6954 9.63 67.6954 9C67.6954 8.37002 67.5117 7.83002 67.0524 7.47002C66.685 7.11002 66.1339 6.84002 65.5828 6.84002C65.0317 6.84002 64.4805 7.02002 64.1131 7.47002C63.7457 7.83002 63.4702 8.37002 63.4702 9C63.4702 9.63 63.6539 10.17 64.1131 10.53Z" fill="white" stroke="white" stroke-width="0.2" stroke-miterlimit="10"/>
<path id="Vector_10" d="M69.4404 11.7V6.29999H70.2671L72.9308 10.53V9.44999V6.29999H73.6656V11.7H72.9308L70.0834 7.28999V8.36999V11.7H69.4404Z" fill="white" stroke="white" stroke-width="0.2" stroke-miterlimit="10"/>
<path id="Vector_11" d="M62.551 19.62C60.3465 19.62 58.6013 21.24 58.6013 23.49C58.6013 25.65 60.3465 27.36 62.551 27.36C64.7554 27.36 66.5006 25.74 66.5006 23.49C66.5006 21.15 64.7554 19.62 62.551 19.62ZM62.551 25.74C61.3569 25.74 60.3465 24.75 60.3465 23.4C60.3465 22.05 61.3569 21.06 62.551 21.06C63.7451 21.06 64.7554 21.96 64.7554 23.4C64.7554 24.75 63.7451 25.74 62.551 25.74ZM54.0088 19.62C51.8043 19.62 50.0591 21.24 50.0591 23.49C50.0591 25.65 51.8043 27.36 54.0088 27.36C56.2132 27.36 57.9584 25.74 57.9584 23.49C57.9584 21.15 56.2132 19.62 54.0088 19.62ZM54.0088 25.74C52.8147 25.74 51.8043 24.75 51.8043 23.4C51.8043 22.05 52.8147 21.06 54.0088 21.06C55.2028 21.06 56.2132 21.96 56.2132 23.4C56.2132 24.75 55.2028 25.74 54.0088 25.74ZM43.8132 20.79V22.41H47.7628C47.671 23.31 47.3036 24.03 46.8443 24.48C46.2932 25.02 45.3747 25.65 43.8132 25.65C41.3332 25.65 39.4962 23.76 39.4962 21.33C39.4962 18.9 41.425 17.01 43.8132 17.01C45.0991 17.01 46.1095 17.55 46.8443 18.18L48.0384 17.01C47.028 16.11 45.7421 15.39 43.905 15.39C40.5984 15.39 37.751 18.09 37.751 21.33C37.751 24.57 40.5984 27.27 43.905 27.27C45.7421 27.27 47.028 26.73 48.1302 25.56C49.2325 24.48 49.5999 22.95 49.5999 21.78C49.5999 21.42 49.5999 21.06 49.508 20.79H43.8132ZM85.5139 22.05C85.1465 21.15 84.228 19.62 82.2073 19.62C80.1865 19.62 78.5332 21.15 78.5332 23.49C78.5332 25.65 80.1865 27.36 82.391 27.36C84.1362 27.36 85.2384 26.28 85.6058 25.65L84.3199 24.75C83.8606 25.38 83.3095 25.83 82.391 25.83C81.4725 25.83 80.9213 25.47 80.4621 24.66L85.6976 22.5L85.5139 22.05ZM80.1865 23.31C80.1865 21.87 81.3806 21.06 82.2073 21.06C82.8502 21.06 83.4932 21.42 83.6769 21.87L80.1865 23.31ZM75.8695 27H77.6147V15.75H75.8695V27ZM73.1139 20.43C72.6547 19.98 71.9199 19.53 71.0013 19.53C69.0725 19.53 67.2354 21.24 67.2354 23.4C67.2354 25.56 68.9806 27.18 71.0013 27.18C71.9199 27.18 72.6547 26.73 73.0221 26.28H73.1139V26.82C73.1139 28.26 72.2873 29.07 71.0013 29.07C69.991 29.07 69.2562 28.35 69.0725 27.72L67.6028 28.35C68.0621 29.34 69.1643 30.6 71.0932 30.6C73.1139 30.6 74.7673 29.43 74.7673 26.64V19.8H73.1139V20.43ZM71.0932 25.74C69.8991 25.74 68.8888 24.75 68.8888 23.4C68.8888 22.05 69.8991 21.06 71.0932 21.06C72.2873 21.06 73.2058 22.05 73.2058 23.4C73.2058 24.75 72.2873 25.74 71.0932 25.74ZM93.5054 15.75H89.3717V27H91.1169V22.77H93.5054C95.4343 22.77 97.2713 21.42 97.2713 19.26C97.2713 17.1 95.4343 15.75 93.5054 15.75ZM93.5973 21.15H91.1169V17.28H93.5973C94.8832 17.28 95.618 18.36 95.618 19.17C95.5262 20.16 94.7913 21.15 93.5973 21.15ZM104.16 19.53C102.874 19.53 101.588 20.07 101.129 21.24L102.691 21.87C103.058 21.24 103.609 21.06 104.252 21.06C105.171 21.06 105.997 21.6 106.089 22.5V22.59C105.814 22.41 105.079 22.14 104.344 22.14C102.691 22.14 101.037 23.04 101.037 24.66C101.037 26.19 102.415 27.18 103.885 27.18C105.079 27.18 105.63 26.64 106.089 26.1H106.181V27H107.834V22.68C107.651 20.7 106.089 19.53 104.16 19.53ZM103.977 25.74C103.425 25.74 102.599 25.47 102.599 24.75C102.599 23.85 103.609 23.58 104.436 23.58C105.171 23.58 105.538 23.76 105.997 23.94C105.814 25.02 104.895 25.74 103.977 25.74ZM113.621 19.8L111.692 24.66H111.6L109.579 19.8H107.742L110.774 26.64L109.028 30.42H110.774L115.458 19.8H113.621ZM98.1899 27H99.9351V15.75H98.1899V27Z" fill="white"/>
<path id="Vector_12" d="M9.55295 6.75C9.2774 7.02 9.18555 7.47 9.18555 8.01V27.9C9.18555 28.44 9.36925 28.89 9.64481 29.16L9.73666 29.25L21.1263 18.09V18V17.91L9.55295 6.75Z" fill="url(#paint0_linear_1244_10734)"/>
<path id="Vector_13" d="M24.8001 21.87L21.0342 18.18V18V17.91L24.8001 14.22L24.892 14.31L29.3927 16.83C30.6786 17.55 30.6786 18.72 29.3927 19.44L24.8001 21.87Z" fill="url(#paint1_linear_1244_10734)"/>
<path id="Vector_14" d="M24.892 21.78L21.0342 18L9.55273 29.25C10.012 29.7 10.655 29.7 11.4816 29.34L24.892 21.78Z" fill="url(#paint2_linear_1244_10734)"/>
<path id="Vector_15" d="M24.892 14.2201L11.4816 6.75002C10.655 6.30002 10.012 6.39002 9.55273 6.84002L21.0342 18.0001L24.892 14.2201Z" fill="url(#paint3_linear_1244_10734)"/>
<path id="Vector_16" opacity="0.2" d="M24.8001 21.69L11.4816 29.07C10.7468 29.52 10.1038 29.43 9.64459 29.07L9.55273 29.16L9.64459 29.25C10.1038 29.61 10.7468 29.7 11.4816 29.25L24.8001 21.69Z" fill="black"/>
<path id="Vector_17" opacity="0.12" d="M9.55295 29.07C9.2774 28.8 9.18555 28.35 9.18555 27.81V27.9C9.18555 28.44 9.36925 28.89 9.64481 29.16V29.07H9.55295Z" fill="black"/>
<path id="Vector_18" opacity="0.12" d="M29.3924 19.17L24.7998 21.69L24.8917 21.78L29.3924 19.26C30.0354 18.9 30.3109 18.45 30.3109 18C30.3109 18.45 29.9435 18.81 29.3924 19.17Z" fill="black"/>
<path id="Vector_19" opacity="0.25" d="M11.4818 6.84002L29.393 16.83C29.9441 17.19 30.3115 17.55 30.3115 18C30.3115 17.55 30.0359 17.1 29.393 16.74L11.4818 6.75002C10.1959 6.03002 9.18555 6.57002 9.18555 8.01002V8.10002C9.18555 6.75002 10.1959 6.12002 11.4818 6.84002Z" fill="white"/>
</g>
</g>
</g>
</g>
<defs>
<linearGradient id="paint0_linear_1244_10734" x1="20.0237" y1="7.83882" x2="4.92267" y2="23.2506" gradientUnits="userSpaceOnUse">
<stop stop-color="#00A0FF"/>
<stop offset="0.00657445" stop-color="#00A1FF"/>
<stop offset="0.2601" stop-color="#00BEFF"/>
<stop offset="0.5122" stop-color="#00D2FF"/>
<stop offset="0.7604" stop-color="#00DFFF"/>
<stop offset="1" stop-color="#00E3FF"/>
</linearGradient>
<linearGradient id="paint1_linear_1244_10734" x1="31.0775" y1="18.0013" x2="8.85223" y2="18.0013" gradientUnits="userSpaceOnUse">
<stop stop-color="#FFE000"/>
<stop offset="0.4087" stop-color="#FFBD00"/>
<stop offset="0.7754" stop-color="#FFA500"/>
<stop offset="1" stop-color="#FF9C00"/>
</linearGradient>
<linearGradient id="paint2_linear_1244_10734" x1="22.8041" y1="20.0666" x2="2.32589" y2="40.9662" gradientUnits="userSpaceOnUse">
<stop stop-color="#FF3A44"/>
<stop offset="1" stop-color="#C31162"/>
</linearGradient>
<linearGradient id="paint3_linear_1244_10734" x1="6.70275" y1="0.158687" x2="15.8472" y2="9.49124" gradientUnits="userSpaceOnUse">
<stop stop-color="#32A071"/>
<stop offset="0.0685" stop-color="#2DA771"/>
<stop offset="0.4762" stop-color="#15CF74"/>
<stop offset="0.8009" stop-color="#06E775"/>
<stop offset="1" stop-color="#00F076"/>
</linearGradient>
<clipPath id="clip0_1244_10734">
<rect width="124" height="36" fill="white"/>
</clipPath>
</defs>
</svg>
