<svg width="512" height="512" viewBox="0 0 512 512" fill="none" xmlns="http://www.w3.org/2000/svg">
<g clip-path="url(#clip0_307_1320)">
<path d="M256 460.8C276.888 460.8 297.045 457.673 316.03 451.862C325.798 448.872 336.616 452.489 341.724 461.336L358.621 490.602C327.204 504.364 292.494 512 256 512C114.615 512 0 397.385 0 256C0 114.615 114.615 0 256 0C397.385 0 512 114.615 512 256C512 342.583 469.016 419.127 403.224 465.457L257.691 213.485L200.628 312.32C193.31 324.994 179.788 332.8 165.155 332.8H129.683L257.691 111.085L415.518 384.452C443.844 349.321 460.8 304.64 460.8 256C460.8 142.892 369.108 51.2 256 51.2C142.892 51.2 51.2 142.892 51.2 256C51.2 369.108 142.892 460.8 256 460.8Z" fill="#FF2E54"/>
</g>
<defs>
<clipPath id="clip0_307_1320">
<rect width="512" height="512" fill="white"/>
</clipPath>
</defs>
</svg>
