<svg width="502" height="112" viewBox="0 0 502 112" fill="none" xmlns="http://www.w3.org/2000/svg">
<path d="M56 100.8C60.5693 100.8 64.9787 100.116 69.1316 98.8447C71.2683 98.1906 73.6348 98.9821 74.7521 100.917L78.4482 107.319C71.5759 110.33 63.983 112 56 112C25.0721 112 0 86.9279 0 56C0 25.0721 25.0721 0 56 0C86.9279 0 112 25.0721 112 56C112 74.9401 102.597 91.6841 88.2052 101.819L56.3697 46.6997L43.8873 68.32C42.2867 71.0922 39.3288 72.8 36.1277 72.8H28.3681L56.3697 24.2997L90.8947 84.0987C97.0907 76.4139 100.8 66.6401 100.8 56C100.8 31.2576 80.7424 11.2 56 11.2C31.2576 11.2 11.2 31.2576 11.2 56C11.2 80.7424 31.2576 100.8 56 100.8Z" fill="#FF2E54"/>
<path fill-rule="evenodd" clip-rule="evenodd" d="M405.831 27.5C389.587 27.5 376.438 40.2637 376.438 56.09V102.829L382.79 99.4799C384.314 98.6763 385.27 97.1077 385.27 95.3961V76.6314C390.592 81.6804 397.874 84.783 405.831 84.783C422.182 84.783 435.329 71.9152 435.329 56.09C435.329 40.2626 422.179 27.5 405.831 27.5ZM385.27 56.09C385.27 45.061 394.452 36.1142 405.831 36.1142C417.317 36.1142 426.498 45.0626 426.498 56.09C426.498 67.1206 417.314 76.1688 405.831 76.1688C394.455 76.1688 385.27 67.1223 385.27 56.09Z" fill="#0E1216"/>
<path fill-rule="evenodd" clip-rule="evenodd" d="M472.001 27.5C455.758 27.5 442.609 40.2637 442.609 56.09V102.829L448.961 99.4799C450.485 98.6763 451.441 97.1077 451.441 95.3961V76.6314C456.763 81.6804 464.045 84.783 472.001 84.783C488.352 84.783 501.5 71.9152 501.5 56.09C501.5 40.2626 488.35 27.5 472.001 27.5ZM451.441 56.09C451.441 45.061 460.623 36.1142 472.001 36.1142C483.488 36.1142 492.668 45.0626 492.668 56.09C492.668 67.1206 483.485 76.1688 472.001 76.1688C460.626 76.1688 451.441 67.1223 451.441 56.09Z" fill="#0E1216"/>
<path fill-rule="evenodd" clip-rule="evenodd" d="M158.999 27.5012C142.757 27.5012 129.5 40.2626 129.5 56.0913C129.5 71.9176 142.755 84.7842 158.999 84.7842C166.955 84.7842 174.237 81.6816 179.56 76.6326V78.1659C179.56 79.8774 180.515 81.4461 182.039 82.2496L188.391 85.5986V56.0913C188.391 40.265 175.242 27.5012 158.999 27.5012ZM138.332 56.0913C138.332 45.0655 147.616 36.1154 158.999 36.1154C170.378 36.1154 179.56 45.0623 179.56 56.0913C179.56 67.1235 170.374 76.1701 158.999 76.1701C147.62 76.1701 138.332 67.1203 138.332 56.0913Z" fill="#0E1216"/>
<path fill-rule="evenodd" clip-rule="evenodd" d="M337.766 27.5012C321.525 27.5012 308.268 40.2626 308.268 56.0913C308.268 71.9176 321.522 84.7842 337.766 84.7842C345.723 84.7842 353.005 81.6816 358.327 76.6326V78.1659C358.327 79.8774 359.283 81.4461 360.807 82.2496L367.159 85.5986V56.0913C367.159 40.265 354.01 27.5012 337.766 27.5012ZM317.099 56.0913C317.099 45.0655 326.384 36.1154 337.766 36.1154C349.145 36.1154 358.327 45.0623 358.327 56.0913C358.327 67.1235 349.142 76.1701 337.766 76.1701C326.387 76.1701 317.099 67.1203 317.099 56.0913Z" fill="#0E1216"/>
<path d="M248.512 28.013H194.655L198.06 34.2073C198.881 35.7007 200.463 36.6271 202.178 36.6271H231.67L194.475 84.267H248.343L244.937 78.0727C244.116 76.5793 242.535 75.6528 240.819 75.6528H211.919L248.512 28.013Z" fill="#0E1216"/>
<path d="M308.506 28.013H254.648L258.054 34.2073C258.875 35.7007 260.457 36.6271 262.172 36.6271H291.664L254.469 84.267H308.337L304.931 78.0727C304.11 76.5793 302.528 75.6528 300.813 75.6528H271.913L308.506 28.013Z" fill="#0E1216"/>
</svg>
