<svg width="512" height="512" viewBox="0 0 512 512" fill="none" xmlns="http://www.w3.org/2000/svg">
<path d="M256 385.6C269.218 385.6 281.974 383.621 293.988 379.944C300.169 378.052 307.015 380.341 310.247 385.939L320.94 404.459C301.059 413.168 279.094 418 256 418C166.53 418 94 345.47 94 256C94 166.53 166.53 94 256 94C345.47 94 418 166.53 418 256C418 310.791 390.799 359.229 349.165 388.547L257.07 229.096L220.96 291.64C216.329 299.66 207.772 304.6 198.512 304.6H176.065L257.07 164.296L356.945 337.286C374.87 315.055 385.6 286.78 385.6 256C385.6 184.424 327.576 126.4 256 126.4C184.424 126.4 126.4 184.424 126.4 256C126.4 327.576 184.424 385.6 256 385.6Z" fill="#FF2E54"/>
</svg>
