<?xml version="1.0" standalone="no"?>
<!DOCTYPE svg PUBLIC "-//W3C//DTD SVG 20010904//EN"
 "http://www.w3.org/TR/2001/REC-SVG-20010904/DTD/svg10.dtd">
<svg version="1.0" xmlns="http://www.w3.org/2000/svg"
 width="700.000000pt" height="700.000000pt" viewBox="0 0 700.000000 700.000000"
 preserveAspectRatio="xMidYMid meet">
<metadata>
Created by potrace 1.14, written by Peter Selinger 2001-2017
</metadata>
<g transform="translate(0.000000,700.000000) scale(0.100000,-0.100000)"
fill="#000000" stroke="none">
<path d="M3437 6904 c-1 -1 -63 -4 -137 -8 -329 -16 -691 -93 -1005 -212 -109
-42 -112 -43 -300 -134 -918 -444 -1605 -1323 -1819 -2325 -29 -138 -53 -281
-61 -375 -3 -36 -8 -87 -10 -115 -11 -128 -5 -470 10 -590 2 -16 7 -52 10 -80
81 -662 388 -1333 840 -1834 131 -145 314 -316 445 -416 36 -27 67 -52 70 -55
3 -3 12 -9 21 -15 8 -5 68 -45 133 -88 348 -232 795 -417 1191 -493 22 -4 46
-8 53 -10 19 -3 138 -22 187 -29 22 -3 67 -8 100 -11 33 -3 80 -7 105 -9 142
-15 528 -3 660 20 14 2 48 7 75 10 28 3 95 15 150 26 55 12 111 23 124 25 14
3 28 7 31 9 4 2 20 6 36 9 91 16 481 151 507 176 5 4 -67 139 -160 299 -142
247 -171 291 -188 288 -11 -3 -51 -16 -90 -31 -116 -43 -343 -102 -465 -121
-19 -3 -46 -7 -60 -10 -23 -4 -87 -11 -204 -21 -63 -6 -313 -5 -386 1 -59 5
-83 7 -190 21 -126 16 -307 59 -463 110 -959 312 -1684 1165 -1836 2159 -6 39
-13 86 -17 105 -13 77 -12 515 2 630 59 490 236 936 528 1325 33 44 65 85 71
91 5 6 35 40 65 74 117 134 308 309 440 402 147 104 282 185 425 253 80 39
234 103 260 110 6 1 17 5 25 8 98 41 317 94 510 122 137 21 554 28 670 12 30
-4 75 -10 100 -13 25 -3 90 -14 145 -25 594 -121 1123 -430 1530 -894 48 -54
192 -249 226 -305 18 -30 43 -69 55 -87 35 -53 160 -312 195 -403 88 -237 144
-473 169 -717 8 -87 6 -529 -3 -568 -3 -11 -8 -42 -11 -70 -53 -408 -218 -829
-464 -1180 -73 -106 -110 -151 -115 -145 -5 5 -247 425 -289 500 -20 36 -365
635 -398 690 -64 109 -793 1371 -835 1445 -12 22 -41 70 -63 108 -23 37 -42
69 -42 71 0 2 -79 140 -176 307 -97 167 -186 322 -198 344 -88 156 -88 157
-101 143 -10 -11 -208 -350 -271 -463 -12 -22 -58 -102 -103 -179 -44 -76 -81
-140 -81 -142 0 -2 -27 -48 -60 -103 -33 -55 -60 -105 -60 -111 0 -5 -4 -10
-10 -10 -5 0 -10 -4 -10 -9 0 -8 -352 -622 -565 -986 -29 -49 -70 -121 -91
-158 -22 -38 -47 -83 -58 -100 -10 -18 -79 -138 -154 -267 -74 -129 -157 -273
-184 -319 l-49 -84 88 7 c130 10 159 14 258 41 165 45 284 99 423 193 75 50
238 198 287 262 47 59 81 107 94 130 230 397 282 487 290 500 5 8 60 104 123
212 154 269 137 252 177 181 17 -32 41 -74 53 -93 29 -50 276 -476 306 -530
32 -57 259 -450 271 -470 5 -8 68 -116 139 -240 72 -124 171 -297 222 -385 51
-88 100 -173 110 -190 474 -822 791 -1369 796 -1374 3 -3 191 133 204 148 3 3
39 35 80 71 119 103 276 264 381 390 121 146 280 377 350 510 16 30 33 62 38
70 51 83 169 363 223 525 36 112 86 299 104 390 4 22 8 45 9 50 11 48 35 227
40 295 4 47 9 96 11 110 5 32 5 403 0 450 -2 19 -7 67 -10 105 -4 39 -8 81
-10 95 -2 14 -7 48 -11 75 -33 244 -133 599 -237 840 -53 121 -181 361 -254
476 -479 749 -1200 1268 -2059 1483 -55 14 -111 27 -125 29 -118 22 -158 28
-250 41 -109 15 -492 38 -503 30z"/>
</g>
</svg>
