<svg width="2000" height="414" viewBox="0 0 2000 414" fill="none" xmlns="http://www.w3.org/2000/svg">
<path d="M206.612 371.965C223.47 371.965 239.739 369.441 255.061 364.75C262.944 362.336 271.675 365.257 275.797 372.398L289.434 396.022C264.079 407.131 236.065 413.295 206.612 413.295C92.5032 413.295 0 320.776 0 206.647C0 92.5192 92.5032 0 206.612 0C320.72 0 413.223 92.5192 413.223 206.647C413.223 276.539 378.532 338.326 325.432 375.724L207.976 172.328L161.922 252.11C156.016 262.34 145.103 268.642 133.293 268.642H104.664L207.976 89.669L335.355 310.335C358.215 281.977 371.901 245.911 371.901 206.647C371.901 115.345 297.898 41.3295 206.612 41.3295C115.325 41.3295 41.3223 115.345 41.3223 206.647C41.3223 297.95 115.325 371.965 206.612 371.965Z" fill="#FF2E54"/>
<path fill-rule="evenodd" clip-rule="evenodd" d="M1518.83 367.988C1524.46 365.019 1527.98 359.234 1527.98 352.938V286.967C1549.84 309.506 1580.89 323.539 1615 323.539C1681.48 323.539 1734.83 271.233 1734.83 207.019C1734.83 142.806 1681.48 90.9248 1615 90.9248C1548.97 90.9248 1495.61 142.806 1495.61 207.019V380.231L1518.83 367.988ZM1527.98 207.019C1527.98 160.241 1566.9 122.394 1615 122.394C1663.55 122.394 1702.47 160.241 1702.47 207.019C1702.47 253.798 1663.55 292.071 1615 292.071C1566.9 292.071 1527.98 253.798 1527.98 207.019Z" fill="#0E1216"/>
<path fill-rule="evenodd" clip-rule="evenodd" d="M632.225 90.9299C698.262 90.9299 751.617 142.811 751.617 207.025V321.418L728.398 309.175C722.769 306.206 719.254 300.421 719.254 294.125V286.972C697.388 309.511 666.337 323.544 632.225 323.544C566.188 323.544 512.397 271.238 512.397 207.025C512.397 142.811 566.188 90.9299 632.225 90.9299ZM544.759 207.025C544.759 253.803 584.119 292.076 632.225 292.076C680.332 292.076 719.254 253.803 719.254 207.025C719.254 160.246 680.332 122.399 632.225 122.399C584.119 122.399 544.759 160.246 544.759 207.025Z" fill="#0E1216"/>
<path d="M995.388 93.0449H780.523L792.913 115.584C795.937 121.087 801.774 124.514 808.119 124.514H934.221L780.523 321.407H995.388L982.998 298.868C979.973 293.365 974.137 289.938 967.792 289.938H844.179L995.388 93.0449Z" fill="#0E1216"/>
<path d="M1022.7 93.0449H1237.57L1086.36 289.938H1209.97C1216.32 289.938 1222.15 293.365 1225.18 298.868L1237.57 321.407H1022.7L1176.4 124.514H1050.3C1043.95 124.514 1038.12 121.087 1035.09 115.584L1022.7 93.0449Z" fill="#0E1216"/>
<path fill-rule="evenodd" clip-rule="evenodd" d="M1350.27 90.9299C1416.31 90.9299 1469.66 142.811 1469.66 207.025V321.418L1446.45 309.175C1440.82 306.206 1437.3 300.421 1437.3 294.125V286.972C1415.44 309.511 1384.39 323.544 1350.27 323.544C1284.24 323.544 1230.44 271.238 1230.44 207.025C1230.44 142.811 1284.24 90.9299 1350.27 90.9299ZM1262.81 207.025C1262.81 253.803 1302.17 292.076 1350.27 292.076C1398.38 292.076 1437.3 253.803 1437.3 207.025C1437.3 160.246 1398.38 122.399 1350.27 122.399C1302.17 122.399 1262.81 160.246 1262.81 207.025Z" fill="#0E1216"/>
<path fill-rule="evenodd" clip-rule="evenodd" d="M1793.14 352.938C1793.14 359.234 1789.63 365.019 1784 367.988L1760.78 380.231V207.019C1760.78 142.806 1814.13 90.9248 1880.17 90.9248C1946.65 90.9248 2000 142.806 2000 207.019C2000 271.233 1946.65 323.539 1880.17 323.539C1846.06 323.539 1815.01 309.506 1793.14 286.967V352.938ZM1880.17 122.394C1832.07 122.394 1793.14 160.241 1793.14 207.019C1793.14 253.798 1832.07 292.071 1880.17 292.071C1928.72 292.071 1967.64 253.798 1967.64 207.019C1967.64 160.241 1928.72 122.394 1880.17 122.394Z" fill="#0E1216"/>
</svg>
