<svg width="135" height="28" viewBox="0 0 135 28" fill="none" xmlns="http://www.w3.org/2000/svg">
<path d="M14.343 25.2C14.8314 25.2 15.3124 25.168 15.7841 25.106C17.3806 24.8962 19.0938 25.4314 19.8921 26.8298C18.1933 27.5824 16.3163 28 14.343 28C6.69771 28 0.5 21.732 0.5 14C0.5 6.26801 6.69771 0 14.343 0C21.9882 0 28.1859 6.26801 28.1859 14C28.1859 18.735 25.8616 22.921 22.304 25.4547L14.4344 11.6749L12.2943 15.4237C11.3143 17.1404 9.48923 18.2 7.51247 18.2L14.4344 6.07492L22.9688 21.0247C24.5004 19.1035 25.4174 16.66 25.4174 14C25.4174 7.81441 20.4592 2.8 14.343 2.8C8.22676 2.8 3.26859 7.81441 3.26859 14C3.26859 20.1856 8.22676 25.2 14.343 25.2Z" fill="white"/>
<path fill-rule="evenodd" clip-rule="evenodd" d="M102.262 24.3705C102.639 24.1694 102.874 23.7775 102.874 23.3509V18.8815C104.339 20.4085 106.42 21.3592 108.705 21.3592C113.159 21.3592 116.734 17.8155 116.734 13.4652C116.734 9.11483 113.159 5.59998 108.705 5.59998C104.281 5.59998 100.706 9.11483 100.706 13.4652V25.2L102.262 24.3705ZM102.874 13.4652C102.874 10.2961 105.482 7.73194 108.705 7.73194C111.958 7.73194 114.565 10.2961 114.565 13.4652C114.565 16.6343 111.958 19.2272 108.705 19.2272C105.482 19.2272 102.874 16.6343 102.874 13.4652Z" fill="white"/>
<path fill-rule="evenodd" clip-rule="evenodd" d="M42.8591 5.60032C47.2836 5.60032 50.8583 9.11517 50.8583 13.4655V21.2155L49.3027 20.386C48.9255 20.1849 48.69 19.793 48.69 19.3664V18.8819C47.225 20.4088 45.1446 21.3595 42.8591 21.3595C38.4346 21.3595 34.8306 17.8159 34.8306 13.4655C34.8306 9.11517 38.4346 5.60032 42.8591 5.60032ZM36.9988 13.4655C36.9988 16.6347 39.636 19.2276 42.8591 19.2276C46.0822 19.2276 48.69 16.6347 48.69 13.4655C48.69 10.2964 46.0822 7.73228 42.8591 7.73228C39.636 7.73228 36.9988 10.2964 36.9988 13.4655Z" fill="white"/>
<path d="M67.191 5.74361H52.795L53.6251 7.27057C53.8278 7.64338 54.2188 7.87558 54.644 7.87558H63.0928L52.795 21.2147H67.191L66.3609 19.6878C66.1582 19.315 65.7672 19.0828 65.342 19.0828H57.06L67.191 5.74361Z" fill="white"/>
<path d="M69.021 5.74361H83.4169L73.2859 19.0828H81.568C81.9931 19.0828 82.3842 19.315 82.5868 19.6878L83.4169 21.2147H69.021L79.3187 7.87558H70.8699C70.4448 7.87558 70.0538 7.64338 69.8511 7.27057L69.021 5.74361Z" fill="white"/>
<path fill-rule="evenodd" clip-rule="evenodd" d="M90.9683 5.60032C95.3928 5.60032 98.9675 9.11517 98.9675 13.4655V21.2155L97.4119 20.386C97.0347 20.1849 96.7992 19.793 96.7992 19.3664V18.8819C95.3342 20.4088 93.2538 21.3595 90.9683 21.3595C86.5438 21.3595 82.9398 17.8159 82.9398 13.4655C82.9398 9.11517 86.5438 5.60032 90.9683 5.60032ZM85.1081 13.4655C85.1081 16.6347 87.7452 19.2276 90.9683 19.2276C94.1914 19.2276 96.7992 16.6347 96.7992 13.4655C96.7992 10.2964 94.1914 7.73228 90.9683 7.73228C87.7452 7.73228 85.1081 10.2964 85.1081 13.4655Z" fill="white"/>
<path fill-rule="evenodd" clip-rule="evenodd" d="M120.641 23.3509C120.641 23.7775 120.405 24.1694 120.028 24.3705L118.472 25.2V13.4652C118.472 9.11483 122.047 5.59998 126.471 5.59998C130.925 5.59998 134.5 9.11483 134.5 13.4652C134.5 17.8155 130.925 21.3592 126.471 21.3592C124.186 21.3592 122.106 20.4085 120.641 18.8815V23.3509ZM126.471 7.73194C123.248 7.73194 120.641 10.2961 120.641 13.4652C120.641 16.6343 123.248 19.2272 126.471 19.2272C129.724 19.2272 132.332 16.6343 132.332 13.4652C132.332 10.2961 129.724 7.73194 126.471 7.73194Z" fill="white"/>
</svg>
