<svg width="335" height="146" viewBox="0 0 335 146" fill="none" xmlns="http://www.w3.org/2000/svg">
<path fill-rule="evenodd" clip-rule="evenodd" d="M0 12C0 5.37258 5.37258 0 12 0H150C156.627 0 162 5.37258 162 12V18.7906C162 20.8196 160.475 22.5104 158.481 22.8868C137.948 26.7633 121.763 42.9476 117.887 63.481C117.51 65.4748 115.82 67 113.791 67H12C5.37259 67 0 61.6274 0 55V12ZM117.887 82.519C117.51 80.5252 115.82 79 113.791 79H12C5.37258 79 0 84.3726 0 91V134C0 140.627 5.37259 146 12 146H150C156.627 146 162 140.627 162 134V127.209C162 125.18 160.475 123.49 158.481 123.113C137.948 119.237 121.763 103.052 117.887 82.519ZM176.599 123.278C174.569 123.623 173 125.329 173 127.388V134C173 140.627 178.373 146 185 146H323C329.627 146 335 140.627 335 134V91C335 84.3726 329.627 79 323 79H222.209C220.18 79 218.49 80.5253 218.113 82.5191C214.179 103.358 197.568 119.718 176.599 123.278ZM218.113 63.4809C218.49 65.4747 220.18 67 222.209 67H323C329.627 67 335 61.6274 335 55V12C335 5.37258 329.627 0 323 0H185C178.373 0 173 5.37258 173 12V18.6123C173 20.6714 174.569 22.3772 176.599 22.7219C197.568 26.2824 214.179 42.6419 218.113 63.4809Z" fill="white" fill-opacity="0.18"/>
</svg>
