<svg width="30" height="30" viewBox="0 0 30 30" fill="none" xmlns="http://www.w3.org/2000/svg">
<rect x="0.5" y="0.5" width="29" height="29" rx="14.5" fill="url(#paint0_linear_8306_438)"/>
<rect x="0.5" y="0.5" width="29" height="29" rx="14.5" stroke="white"/>
<path d="M15.0299 8.09033C11.1108 8.09033 7.92125 11.1624 7.91987 14.9378C7.91895 16.1452 8.24693 17.3235 8.8688 18.3613L7.85999 21.9097L11.6294 20.9575C12.678 21.506 13.8438 21.7921 15.0272 21.7913H15.0299C18.9491 21.7913 22.1386 18.7188 22.14 14.9434C22.1409 13.1146 21.402 11.3932 20.0593 10.0992C18.7169 8.80479 16.9319 8.09079 15.0299 8.09033ZM15.0299 20.6346H15.0276C13.9672 20.6346 12.9271 20.3601 12.0196 19.8414L11.8031 19.7179L9.56714 20.2827L10.1641 18.1821L10.0236 17.967C9.4335 17.067 9.11936 16.0141 9.11985 14.9378C9.12123 11.7994 11.7727 9.24701 15.0322 9.24701C16.6104 9.24747 18.0941 9.84032 19.2103 10.9159C20.3264 11.9915 20.9405 13.4218 20.9395 14.9429C20.9382 18.0813 18.2871 20.6346 15.0295 20.6346H15.0299ZM18.2715 16.3713C18.0937 16.2861 17.2203 15.872 17.0572 15.8144C16.8946 15.7578 16.7762 15.7283 16.6578 15.8996C16.5399 16.071 16.199 16.4566 16.0959 16.5703C15.9918 16.6846 15.8881 16.6984 15.7103 16.6132C15.5325 16.5275 14.9599 16.3469 14.2818 15.7638C13.7535 15.3105 13.3969 14.7503 13.2933 14.5785C13.1896 14.4076 13.2822 14.315 13.3711 14.2298C13.4508 14.1538 13.549 14.0304 13.6374 13.9304C13.7258 13.8304 13.7553 13.759 13.8152 13.6448C13.8742 13.531 13.8447 13.4306 13.8 13.3454C13.7553 13.2592 13.4006 12.4172 13.2518 12.0749C13.1081 11.7414 12.9616 11.7861 12.8525 11.7806C12.7488 11.776 12.6309 11.7746 12.5116 11.7746C12.3941 11.7746 12.2011 11.8174 12.038 11.9888C11.8754 12.1601 11.4162 12.5738 11.4162 13.4159C11.4162 14.2584 12.0528 15.0719 12.1417 15.1861C12.2306 15.2999 13.3946 17.0287 15.1769 17.7703C15.6007 17.9458 15.9314 18.0513 16.1898 18.1306C16.6155 18.2609 17.0029 18.242 17.3087 18.1983C17.6496 18.149 18.3599 17.7846 18.5073 17.3852C18.6557 16.9859 18.6557 16.6431 18.6114 16.5717C18.5681 16.5003 18.4493 16.4575 18.2715 16.3713V16.3713Z" fill="white"/>
<defs>
<linearGradient id="paint0_linear_8306_438" x1="24.24" y1="3.24" x2="15" y2="29" gradientUnits="userSpaceOnUse">
<stop stop-color="#8EF88A"/>
<stop offset="1" stop-color="#53B63D"/>
</linearGradient>
</defs>
</svg>
